<?xml version="1.0" encoding="UTF-8" standalone="no"?>
<!-- Created with Inkscape (http://www.inkscape.org/) -->

<svg
   xmlns:dc="http://purl.org/dc/elements/1.1/"
   xmlns:cc="http://creativecommons.org/ns#"
   xmlns:rdf="http://www.w3.org/1999/02/22-rdf-syntax-ns#"
   xmlns:svg="http://www.w3.org/2000/svg"
   xmlns="http://www.w3.org/2000/svg"
   xmlns:sodipodi="http://sodipodi.sourceforge.net/DTD/sodipodi-0.dtd"
   xmlns:inkscape="http://www.inkscape.org/namespaces/inkscape"
   width="66.646187mm"
   height="44.433468mm"
   viewBox="0 0 66.646187 44.433468"
   version="1.1"
   id="svg7797"
   inkscape:version="0.92.4 (5da689c313, 2019-01-14)"
   sodipodi:docname="puffin-happy.svg"
   inkscape:export-filename="C:\Users\Adam\Desktop\happy-puffin.png"
   inkscape:export-xdpi="300"
   inkscape:export-ydpi="300">
  <defs
     id="defs7791" />
  <sodipodi:namedview
     id="base"
     pagecolor="#ffffff"
     bordercolor="#666666"
     borderopacity="1.0"
     inkscape:pageopacity="0.0"
     inkscape:pageshadow="2"
     inkscape:zoom="1.979899"
     inkscape:cx="100.79107"
     inkscape:cy="87.248044"
     inkscape:document-units="mm"
     inkscape:current-layer="layer1"
     showgrid="false"
     fit-margin-top="0"
     fit-margin-left="0"
     fit-margin-right="0"
     fit-margin-bottom="0"
     inkscape:window-width="2560"
     inkscape:window-height="1377"
     inkscape:window-x="2552"
     inkscape:window-y="-8"
     inkscape:window-maximized="1" />
  <metadata
     id="metadata7794">
    <rdf:RDF>
      <cc:Work
         rdf:about="">
        <dc:format>image/svg+xml</dc:format>
        <dc:type
           rdf:resource="http://purl.org/dc/dcmitype/StillImage" />
        <dc:title />
      </cc:Work>
    </rdf:RDF>
  </metadata>
  <g
     inkscape:label="Vrstva 1"
     inkscape:groupmode="layer"
     id="layer1"
     transform="translate(325.87666,-44.21779)">
    <path
       inkscape:export-ydpi="300"
       inkscape:export-xdpi="300"
       inkscape:transform-center-y="4.497919"
       inkscape:transform-center-x="-12.369285"
       inkscape:connector-curvature="0"
       id="path4828"
       d="m -273.99581,59.224272 c -3.73281,0 -4.89424,0.99506 -6.79495,1.91875 -1.9007,0.92368 -5.39088,-0.37724 -5.39088,-0.37724 l -1.4087,15.051788 c 0,0 2.40047,-1.336429 5.1413,-3.401859 1.75705,-1.324078 4.0581,-2.064339 5.12372,-2.408119 1.99746,-0.72075 1.91367,-0.73956 4.35529,-0.0284 0,0 0.16877,0.008 0.2036,-1.13016 0.0719,0.0592 0.14121,0.1112 0.20774,0.15451 1.05394,0.68611 1.25056,0.60875 1.25056,0.60875 0,0 0.17175,-0.002 0.10904,-1.16996 -0.002,-0.0422 -0.0139,-0.0911 -0.0222,-0.13746 0.13741,0.1185 0.26874,0.22069 0.38914,0.29301 1.07803,0.64762 1.27174,0.56327 1.27174,0.56327 0,0 0.17207,-0.009 0.0672,-1.17357 -0.009,-0.0992 -0.0411,-0.21319 -0.0827,-0.3328 0.23982,0.17201 0.46574,0.31277 0.65888,0.39481 1.15749,0.49176 1.33738,0.38137 1.33738,0.38137 0,0 0.16939,-0.0327 -0.0961,-1.1715 -0.0124,-0.053 -0.0361,-0.11105 -0.0594,-0.16898 0.21024,0.0955 0.40509,0.16991 0.57207,0.20929 1.22403,0.28871 1.38285,0.14934 1.38285,0.14934 0,0 0.16093,-0.0605 -0.29351,-1.13791 -0.01,-0.0228 -0.0277,-0.0478 -0.0398,-0.0713 0.24649,0.0738 0.47358,0.12673 0.66042,0.14263 1.2531,0.10668 1.38958,-0.0543 1.38958,-0.0543 0,0 0.15075,-0.0838 -0.4563,-1.08314 -0.0352,-0.0579 -0.0829,-0.11737 -0.13643,-0.17725 0.25272,0.0442 0.48379,0.0702 0.67076,0.0641 1.25696,-0.0411 1.37357,-0.21756 1.37357,-0.21756 0,0 0.13976,-0.10038 -0.58033,-1.02164 -0.0128,-0.0163 -0.033,-0.0328 -0.0475,-0.0491 0.0682,-0.003 0.13616,-0.006 0.19585,-0.0134 1.2471,-0.16237 1.34616,-0.34934 1.34616,-0.34934 0,0 0.1172,-0.11299 -0.62941,-0.90899 0.71248,0.0152 1.40076,-0.0125 1.82314,-0.14159 1.20275,-0.3675 1.2697,-0.56792 1.2697,-0.56792 0,0 0.10861,-0.13353 -0.82682,-0.83509 -0.64811,-0.48609 -2.6176,-0.59914 -3.81684,-0.62529 -3.32772,-0.54323 -7.31747,-1.17771 -10.11772,-1.17771 z"
       style="display:inline;fill:#34302f;fill-opacity:1;stroke:none;stroke-width:0.26458332px;stroke-linecap:butt;stroke-linejoin:miter;stroke-opacity:1" />
    <path
       inkscape:export-filename="C:\Users\Adam\puffin_down.png"
       inkscape:export-ydpi="300"
       inkscape:export-xdpi="300"
       style="display:inline;opacity:1;vector-effect:none;fill:#ed875f;fill-opacity:1;stroke:none;stroke-width:0.57983267;stroke-linecap:round;stroke-linejoin:miter;stroke-miterlimit:4;stroke-dasharray:none;stroke-dashoffset:0;stroke-opacity:1"
       d="m -293.61663,77.272181 c -0.091,-0.0173 -0.18689,-0.01651 -0.28327,0.005 -0.38545,0.0847 -0.62774,0.46332 -0.54305,0.848739 l 1.23244,5.851429 c -1.13166,0.69777 -1.53285,1.796468 -1.49252,2.058599 0.0404,0.26213 2.55071,0.782291 3.98054,0.964721 1.38426,0.172339 4.61595,-0.003 4.81363,-0.72126 0.1977,-0.717481 -4.01315,-2.769391 -5.77556,-2.349351 -0.0262,-0.0021 -0.0526,-0.005 -0.0791,-0.006 l -1.28833,-6.10424 c -0.0635,-0.28911 -0.29186,-0.497541 -0.56487,-0.54793 z"
       id="path4830"
       inkscape:connector-curvature="0"
       sodipodi:nodetypes="cccczczccccc" />
    <path
       inkscape:export-filename="C:\Users\Adam\puffin_down.png"
       inkscape:export-ydpi="300"
       inkscape:export-xdpi="300"
       sodipodi:nodetypes="cccccccsssccccccc"
       inkscape:connector-curvature="0"
       id="path4832"
       d="m -287.12662,44.240956 c -3.17975,-0.27257 -5.97467,1.886575 -6.5941,5.081678 -0.61941,3.195107 -1.10827,6.56726 -1.4758,9.546081 -6.38802,4.084905 -10.53882,10.901393 -11.30345,17.127145 l -0.0356,-0.008 c -0.4009,2.015019 -1.68904,3.866388 -3.12825,5.332566 0.95186,0.222671 2.22551,0.384673 3.19849,0.479161 1.59434,0.12964 3.46899,0.0172 5.068,0.0602 8.3614,0.22451 15.53568,-5.014518 18.88649,-13.311948 0.68383,-1.69322 0.47452,-3.796413 -0.2841,-5.20741 -0.86262,-1.604269 -1.31594,-3.420465 -1.15833,-5.278595 0.0588,-0.633843 0.18327,-1.259864 0.37189,-1.867847 0.57963,0.152138 1.17036,0.258471 1.76667,0.318024 1.90387,0.160394 3.81762,-0.158912 5.56635,-0.928609 -0.4331,-3.981475 -2.91762,-7.446212 -6.54966,-9.133777 -1.10179,-1.269824 -2.65384,-2.061863 -4.32857,-2.208898 z"
       style="display:inline;opacity:1;vector-effect:none;fill:#34302f;fill-opacity:1;stroke:none;stroke-width:0.5;stroke-linecap:round;stroke-linejoin:miter;stroke-miterlimit:4;stroke-dasharray:none;stroke-dashoffset:0;stroke-opacity:1" />
    <path
       inkscape:export-filename="C:\Users\Adam\puffin_down.png"
       inkscape:export-ydpi="300"
       inkscape:export-xdpi="300"
       sodipodi:nodetypes="czzzccc"
       inkscape:connector-curvature="0"
       id="path4834"
       d="m -282.79805,46.449849 c 0,0 -1.8742,-0.671325 -3.93389,-0.133098 -2.0597,0.53824 -5.91776,3.249266 -5.95791,3.714244 -0.0401,0.464964 2.58907,3.348134 4.96497,4.626569 2.37589,1.27844 4.14347,1.536635 4.14347,1.536635 0.79257,-3.049842 1.51897,-6.124379 0.78333,-9.744371 z"
       style="display:inline;fill:#e7e7e7;fill-opacity:1;stroke:none;stroke-width:0.26458332px;stroke-linecap:butt;stroke-linejoin:miter;stroke-opacity:1" />
    <path
       inkscape:export-filename="C:\Users\Adam\puffin_down.png"
       inkscape:export-ydpi="300"
       inkscape:export-xdpi="300"
       inkscape:connector-curvature="0"
       id="path4836"
       d="m -282.79808,46.44985 c 0.73566,3.619974 0.009,6.694512 -0.78333,9.744357 0.49828,0.130765 1.00498,0.225616 1.51614,0.288095 0.58497,-0.861861 1.37519,-2.091811 1.70007,-2.959095 0.40837,-1.090136 0.64779,-3.121666 0.78588,-4.830105 -0.92362,-0.913656 -2.00515,-1.679383 -3.21873,-2.243253 z"
       style="display:inline;opacity:1;vector-effect:none;fill:#ed875f;fill-opacity:1;stroke:none;stroke-width:0.5;stroke-linecap:round;stroke-linejoin:miter;stroke-miterlimit:4;stroke-dasharray:none;stroke-dashoffset:0;stroke-opacity:1" />
    <path
       inkscape:export-filename="C:\Users\Adam\puffin_down.png"
       inkscape:export-ydpi="300"
       inkscape:export-xdpi="300"
       inkscape:connector-curvature="0"
       id="path4838"
       d="m -278.78186,49.561263 c 0.15994,1.138997 0.28987,2.316408 0.2979,3.181416 0.009,0.99761 -0.0807,2.343745 -0.18953,3.59422 0.83054,-0.161483 1.64472,-0.409803 2.42507,-0.753276 -0.24453,-2.247948 -1.14373,-4.330709 -2.53344,-6.02236 z"
       style="display:inline;opacity:1;vector-effect:none;fill:#f56356;fill-opacity:1;stroke:none;stroke-width:0.5;stroke-linecap:round;stroke-linejoin:miter;stroke-miterlimit:4;stroke-dasharray:none;stroke-dashoffset:0;stroke-opacity:1" />
    <path
       inkscape:export-filename="C:\Users\Adam\puffin_down.png"
       inkscape:export-ydpi="300"
       inkscape:export-xdpi="300"
       sodipodi:nodetypes="szcsczs"
       inkscape:connector-curvature="0"
       id="path4840"
       d="m -287.94903,50.272718 c -0.10492,-0.285769 1.07124,-0.965792 1.68575,-1.232774 0.61453,-0.266964 1.25167,-0.282315 1.80925,-0.214048 0.15094,0.380549 0.20542,0.712496 0.22422,1.085156 0.0196,0.387798 -0.0405,0.762464 -0.11624,1.159019 -0.90614,-0.07824 -1.13786,-0.198325 -1.90595,-0.404072 -0.76809,-0.205792 -1.61858,-0.17962 -1.69703,-0.393281 z"
       style="display:inline;fill:#34302f;fill-opacity:1;stroke:none;stroke-width:0.26458332px;stroke-linecap:butt;stroke-linejoin:miter;stroke-opacity:1" />
    <path
       inkscape:export-filename="C:\Users\Adam\puffin_down.png"
       inkscape:export-ydpi="300"
       inkscape:export-xdpi="300"
       style="display:inline;opacity:1;vector-effect:none;fill:#e7e7e7;fill-opacity:1;stroke:none;stroke-width:0.44063294;stroke-linecap:round;stroke-linejoin:miter;stroke-miterlimit:4;stroke-dasharray:none;stroke-dashoffset:0;stroke-opacity:1"
       d="m -295.89124,62.210838 c -1.95206,2.262221 -4.01801,5.643361 -5.59354,8.626395 -1.6256,3.07784 -3.93284,8.395978 -3.84967,8.589749 0.43611,0.658116 0.27002,1.163896 1.21656,1.278225 10.51283,1.269842 17.25928,-5.314576 19.10073,-9.423175 1.84143,-4.108589 2.45348,-5.039546 1.18188,-8.020481 -0.96221,-1.464753 -0.57014,-4.531854 -1.81173,-4.554155 -5.65566,-0.10162 -8.2695,1.214956 -10.24423,3.503442 z"
       id="path4842"
       inkscape:connector-curvature="0"
       sodipodi:nodetypes="sscszcss" />
    <path
       inkscape:export-filename="C:\Users\Adam\puffin_down.png"
       inkscape:export-ydpi="300"
       inkscape:export-xdpi="300"
       sodipodi:nodetypes="cccczczccccc"
       inkscape:connector-curvature="0"
       id="path4844"
       d="m -302.47969,78.92779 c -0.0926,-2.65e-4 -0.18673,0.01839 -0.27749,0.0572 -0.36318,0.15445 -0.53136,0.57132 -0.37694,0.934458 l 2.62289,6.160892 c -1.0734,0.415398 -2.26405,1.888177 -2.17039,2.168109 0.0937,0.279908 2.48094,0.467069 3.91984,0.38222 1.39229,-0.0862 3.9474,-0.5802 4.029,-1.05755 0.0816,-0.47734 -2.58508,-1.92481 -4.28735,-1.821151 -0.0263,0.003 -0.0526,0.005 -0.0786,0.01 l -2.72447,-6.39903 c -0.11586,-0.272377 -0.37875,-0.435037 -0.65639,-0.434167 z"
       style="display:inline;opacity:1;vector-effect:none;fill:#ed875f;fill-opacity:1;stroke:none;stroke-width:0.57983267;stroke-linecap:round;stroke-linejoin:miter;stroke-miterlimit:4;stroke-dasharray:none;stroke-dashoffset:0;stroke-opacity:1" />
    <path
       style="display:inline;fill:#34302f;fill-opacity:1;stroke:none;stroke-width:0.31250668px;stroke-linecap:butt;stroke-linejoin:miter;stroke-opacity:1"
       d="m -308.24559,54.573969 c 4.24595,1.187633 6.26611,2.454629 8.13421,4.110027 1.86812,1.655387 5.92052,0.291681 5.92052,0.291681 l -12.13605,18.397783 c 0.11446,-3.888684 -0.2733,-6.308616 -2.00425,-8.977282 -1.05361,-1.649837 -1.49949,-1.947278 -4.50303,-1.915186 0,0 -0.19449,-0.0446 0.12799,-1.350299 -0.10063,0.04446 -0.196,0.08156 -0.28544,0.109656 -1.41712,0.445106 -1.61616,0.294551 -1.61616,0.294551 0,0 -0.19473,-0.05692 0.2482,-1.365486 0.0157,-0.04736 0.0448,-0.0992 0.069,-0.149294 -0.19399,0.09108 -0.37591,0.165526 -0.53586,0.209484 -1.43228,0.393657 -1.62579,0.23608 -1.62579,0.23608 0,0 -0.19284,-0.06497 0.29695,-1.356279 0.0418,-0.109975 0.11457,-0.229421 0.19995,-0.352238 -0.32751,0.119355 -0.62926,0.207586 -0.87506,0.239454 -1.47308,0.191092 -1.64257,0.0083 -1.64257,0.0083 0,0 -0.18227,-0.09109 0.48204,-1.30197 0.031,-0.05634 0.0764,-0.114829 0.12133,-0.17331 -0.26953,0.04174 -0.51484,0.06438 -0.71729,0.05606 -1.48417,-0.06104 -1.62048,-0.270102 -1.62048,-0.270102 0,0 -0.16379,-0.120016 0.69591,-1.200951 0.0187,-0.02275 0.0468,-0.04556 0.0679,-0.06843 -0.30385,0.0056 -0.579,-0.0065 -0.79658,-0.04788 -1.45931,-0.277343 -1.56333,-0.503875 -1.56333,-0.503875 0,0 -0.14481,-0.143283 0.86364,-1.086862 0.0585,-0.05466 0.13163,-0.107128 0.21157,-0.15821 -0.30152,-0.03013 -0.57262,-0.07407 -0.78336,-0.140497 -1.41668,-0.446667 -1.49317,-0.684485 -1.49317,-0.684485 0,0 -0.12704,-0.158645 0.98516,-0.977445 0.0197,-0.01447 0.048,-0.02681 0.0697,-0.04074 -0.0767,-0.02511 -0.15297,-0.05015 -0.2185,-0.07755 -1.3669,-0.581473 -1.42009,-0.825663 -1.42009,-0.825663 0,0 -0.0973,-0.165811 1.00514,-0.833694 -0.81526,-0.209394 -1.58934,-0.459886 -2.02871,-0.741107 -1.25116,-0.800685 -1.26355,-1.049957 -1.26355,-1.049957 0,0 -0.081,-0.186446 1.20618,-0.686827 0.89186,-0.346709 3.16804,0.151313 4.54047,0.50312 3.95801,0.440848 8.69809,0.988532 11.88328,1.87946 z"
       id="path4846"
       inkscape:connector-curvature="0"
       inkscape:transform-center-x="14.325455"
       inkscape:transform-center-y="2.2797398"
       inkscape:export-xdpi="300"
       inkscape:export-ydpi="300"
       sodipodi:nodetypes="cccccccccccccccccccccccccccccccccccccccc" />
  </g>
</svg>
