<?xml version="1.0" encoding="UTF-8" standalone="no"?>
<!-- Created with Inkscape (http://www.inkscape.org/) -->

<svg
   xmlns:dc="http://purl.org/dc/elements/1.1/"
   xmlns:cc="http://creativecommons.org/ns#"
   xmlns:rdf="http://www.w3.org/1999/02/22-rdf-syntax-ns#"
   xmlns:svg="http://www.w3.org/2000/svg"
   xmlns="http://www.w3.org/2000/svg"
   xmlns:xlink="http://www.w3.org/1999/xlink"
   xmlns:sodipodi="http://sodipodi.sourceforge.net/DTD/sodipodi-0.dtd"
   xmlns:inkscape="http://www.inkscape.org/namespaces/inkscape"
   width="46.31419mm"
   height="39.9659mm"
   viewBox="0 0 46.31419 39.965901"
   version="1.1"
   id="svg6856"
   inkscape:version="0.92.4 (5da689c313, 2019-01-14)"
   sodipodi:docname="hexarctic-logo.svg">
  <defs
     id="defs6850">
    <radialGradient
       inkscape:collect="always"
       xlink:href="#linearGradient5677"
       id="radialGradient5679-6"
       cx="64.69062"
       cy="93.403122"
       fx="64.69062"
       fy="93.403122"
       r="5.1117187"
       gradientTransform="matrix(1,0,0,0.36593817,24.08608,173.14666)"
       gradientUnits="userSpaceOnUse" />
    <linearGradient
       inkscape:collect="always"
       id="linearGradient5677">
      <stop
         style="stop-color:#000000;stop-opacity:1;"
         offset="0"
         id="stop5673" />
      <stop
         style="stop-color:#000000;stop-opacity:0;"
         offset="1"
         id="stop5675" />
    </linearGradient>
    <linearGradient
       inkscape:collect="always"
       xlink:href="#linearGradient7590"
       id="linearGradient7594"
       x1="58.665302"
       y1="91.526772"
       x2="67.732872"
       y2="73.632507"
       gradientUnits="userSpaceOnUse" />
    <linearGradient
       inkscape:collect="always"
       id="linearGradient7590">
      <stop
         style="stop-color:#e9e8e3;stop-opacity:1;"
         offset="0"
         id="stop7586" />
      <stop
         style="stop-color:#759975;stop-opacity:1"
         offset="1"
         id="stop7588" />
    </linearGradient>
  </defs>
  <sodipodi:namedview
     id="base"
     pagecolor="#ffffff"
     bordercolor="#666666"
     borderopacity="1.0"
     inkscape:pageopacity="0.0"
     inkscape:pageshadow="2"
     inkscape:zoom="1.979899"
     inkscape:cx="92.982782"
     inkscape:cy="153.57031"
     inkscape:document-units="mm"
     inkscape:current-layer="layer1"
     showgrid="false"
     fit-margin-top="0"
     fit-margin-left="0"
     fit-margin-right="0"
     fit-margin-bottom="0"
     inkscape:window-width="2560"
     inkscape:window-height="1377"
     inkscape:window-x="2552"
     inkscape:window-y="-8"
     inkscape:window-maximized="1" />
  <metadata
     id="metadata6853">
    <rdf:RDF>
      <cc:Work
         rdf:about="">
        <dc:format>image/svg+xml</dc:format>
        <dc:type
           rdf:resource="http://purl.org/dc/dcmitype/StillImage" />
        <dc:title></dc:title>
      </cc:Work>
    </rdf:RDF>
  </metadata>
  <g
     inkscape:label="Vrstva 1"
     inkscape:groupmode="layer"
     id="layer1"
     transform="translate(-60.55945,-179.51819)">
    <path
       inkscape:export-ydpi="300"
       inkscape:export-xdpi="300"
       sodipodi:nodetypes="ccccccccc"
       inkscape:connector-curvature="0"
       id="path5555-3"
       d="M 60.55945,207.35949 72.138,197.29289 h 23.15709 l 11.57855,10.0666 v 2.05799 L 95.29509,219.48409 H 72.138 L 60.55945,209.41748 Z"
       inkscape:transform-center-y="-1.0215199e-06"
       style="opacity:1;vector-effect:none;fill:#755c45;fill-opacity:1;stroke:none;stroke-width:0.49999997;stroke-linecap:round;stroke-linejoin:miter;stroke-miterlimit:4;stroke-dasharray:none;stroke-dashoffset:0;stroke-opacity:1;paint-order:stroke markers fill" />
    <path
       inkscape:export-ydpi="300"
       inkscape:export-xdpi="300"
       transform="matrix(1,0,0,0.5019593,22.597796,164.52564)"
       inkscape:transform-center-y="-1.0215199e-06"
       d="m 72.697291,65.2787 11.578546,20.054627 -11.578544,20.054633 -23.157089,0 L 37.961658,85.333329 49.540202,65.278701 Z"
       inkscape:randomized="0"
       inkscape:rounded="0"
       inkscape:flatsided="true"
       sodipodi:arg2="-0.52359878"
       sodipodi:arg1="-1.0471976"
       sodipodi:r2="20.054626"
       sodipodi:r1="23.157089"
       sodipodi:cy="85.333328"
       sodipodi:cx="61.118748"
       sodipodi:sides="6"
       id="path5553-1"
       style="opacity:1;vector-effect:none;fill:url(#linearGradient7594);fill-opacity:1;stroke:none;stroke-width:0.5;stroke-linecap:round;stroke-linejoin:miter;stroke-miterlimit:4;stroke-dasharray:none;stroke-dashoffset:0;stroke-opacity:1"
       sodipodi:type="star" />
    <path
       inkscape:export-ydpi="300"
       inkscape:export-xdpi="300"
       sodipodi:nodetypes="csccsccssaacccsccssscccsscc"
       inkscape:connector-curvature="0"
       id="path5729-0"
       d="m 95.29509,197.29289 c 0,0 -1.00277,0.20734 -1.960959,0.76674 -0.4791,0.27971 -0.983962,0.54559 -1.34761,0.93375 -0.363652,0.38817 -0.766522,0.94148 -0.753571,1.43337 0.01299,0.49288 0.287071,0.97784 0.60742,1.4746 0.32035,0.49677 0.52823,0.86649 0.771851,1.37922 0.243609,0.51273 0.357269,1.01674 0.185539,1.53125 -0.171731,0.51451 -0.637519,1.05942 -1.615229,1.62305 -1.932831,1.11421 -5.297801,1.46209 -8.280041,2.07009 -1.49113,0.30399 -3.28431,0.52775 -4.56245,1.48999 -0.40595,0.30561 -0.72778,0.76989 -0.85547,1.26172 -0.14929,0.57502 -0.0873,1.09376 0.15625,1.77538 1.45603,4.07424 1.81991,4.4046 1.81991,4.4046 l 2.60263,-0.006 c 0,0 -0.5418,-1.19218 -2.51213,-4.57596 -0.34508,-0.59263 -0.4285,-1.29391 -0.31409,-1.73803 0.1144,-0.44411 0.17821,-0.45725 0.56684,-0.7703 0.77726,-0.6261 1.88532,-0.77963 3.36171,-1.08062 2.95279,-0.60199 6.443991,-1.07377 8.4868,-2.25139 1.010099,-0.58229 1.5368,-1.41535 1.73632,-2.01314 0.19953,-0.59779 0.0619,-1.18498 -0.19726,-1.73047 -0.259181,-0.54549 -0.64108,-1.06191 -0.95508,-1.54883 -0.314,-0.48691 -0.55404,-0.9421 -0.564449,-1.33789 -0.0105,-0.39679 0.195199,-0.77997 0.531249,-1.13867 0.336039,-0.3587 0.79814,-0.68525 1.263671,-0.95703 0.931058,-0.54357 2.031871,-0.81263 2.031871,-0.81263 z"
       style="color:#000000;font-style:normal;font-variant:normal;font-weight:normal;font-stretch:normal;font-size:medium;line-height:normal;font-family:sans-serif;font-variant-ligatures:normal;font-variant-position:normal;font-variant-caps:normal;font-variant-numeric:normal;font-variant-alternates:normal;font-feature-settings:normal;text-indent:0;text-align:start;text-decoration:none;text-decoration-line:none;text-decoration-style:solid;text-decoration-color:#000000;letter-spacing:normal;word-spacing:normal;text-transform:none;writing-mode:lr-tb;direction:ltr;text-orientation:mixed;dominant-baseline:auto;baseline-shift:baseline;text-anchor:start;white-space:normal;shape-padding:0;clip-rule:nonzero;display:inline;overflow:visible;visibility:visible;opacity:1;isolation:auto;mix-blend-mode:normal;color-interpolation:sRGB;color-interpolation-filters:linearRGB;solid-color:#000000;solid-opacity:1;vector-effect:none;fill:#97cde8;fill-opacity:1;fill-rule:nonzero;stroke:none;stroke-width:0.26458332px;stroke-linecap:butt;stroke-linejoin:miter;stroke-miterlimit:4;stroke-dasharray:none;stroke-dashoffset:0;stroke-opacity:1;color-rendering:auto;image-rendering:auto;shape-rendering:auto;text-rendering:auto;enable-background:accumulate" />
    <ellipse
       inkscape:export-ydpi="300"
       inkscape:export-xdpi="300"
       ry="1.6205729"
       rx="4.8617187"
       cy="207.32643"
       cx="88.776703"
       id="path5663-9"
       style="opacity:1;vector-effect:none;fill:#e7e7e7;fill-opacity:0;stroke:url(#radialGradient5679-6);stroke-width:0.5;stroke-linecap:round;stroke-linejoin:miter;stroke-miterlimit:4;stroke-dasharray:none;stroke-dashoffset:0;stroke-opacity:0" />
    <path
       transform="translate(-28.920361,47.643984)"
       sodipodi:type="inkscape:offset"
       inkscape:radius="0"
       inkscape:original="M 119.60547 164.75586 L 117.31445 165.91406 L 117.53906 166.42188 L 116.48242 167.49023 L 117.39648 167.58984 L 118.08594 167.41602 L 118.61328 166.91797 L 119.51172 167.12891 L 119.60547 164.75586 z "
       style="fill:#282018;fill-opacity:0.23364485;stroke:none;stroke-width:0.26458332px;stroke-linecap:butt;stroke-linejoin:miter;stroke-opacity:1"
       id="path923"
       d="m 119.60547,164.75586 -2.29102,1.1582 0.22461,0.50782 -1.05664,1.06835 0.91406,0.0996 0.68946,-0.17382 0.52734,-0.49805 0.89844,0.21094 z" />
    <path
       sodipodi:type="inkscape:offset"
       inkscape:radius="0"
       inkscape:original="M 119.60547 164.75586 L 117.31445 165.91406 L 117.53906 166.42188 L 116.48242 167.49023 L 117.39648 167.58984 L 118.08594 167.41602 L 118.61328 166.91797 L 119.51172 167.12891 L 119.60547 164.75586 z "
       style="fill:#282018;fill-opacity:0.23364485;stroke:none;stroke-width:0.26458332px;stroke-linecap:butt;stroke-linejoin:miter;stroke-opacity:1"
       id="path949"
       d="m 119.60547,164.75586 -2.29102,1.1582 0.22461,0.50782 -1.05664,1.06835 0.91406,0.0996 0.68946,-0.17382 0.52734,-0.49805 0.89844,0.21094 z"
       transform="translate(-22.600161,48.044473)" />
    <path
       transform="translate(-17.688769,44.081573)"
       d="m 119.60547,164.75586 -2.29102,1.1582 0.22461,0.50782 -1.05664,1.06835 0.91406,0.0996 0.68946,-0.17382 0.52734,-0.49805 0.89844,0.21094 z"
       id="path953"
       style="fill:#282018;fill-opacity:0.23364485;stroke:none;stroke-width:0.26458332px;stroke-linecap:butt;stroke-linejoin:miter;stroke-opacity:1"
       inkscape:original="M 119.60547 164.75586 L 117.31445 165.91406 L 117.53906 166.42188 L 116.48242 167.49023 L 117.39648 167.58984 L 118.08594 167.41602 L 118.61328 166.91797 L 119.51172 167.12891 L 119.60547 164.75586 z "
       inkscape:radius="0"
       sodipodi:type="inkscape:offset" />
    <path
       style="fill:#282018;fill-opacity:0.11214953;stroke:none;stroke-width:0.26458332px;stroke-linecap:butt;stroke-linejoin:miter;stroke-opacity:1"
       d="m 79.91316,206.58819 -3.00018,-0.63784 4.17426,-0.78591 3.47975,-1.4347 3.82701,-0.92131 h 2.59859 c 0,0 1.015809,1.06305 1.039431,1.15755 0.0236,0.0945 -0.23623,1.2048 -0.23623,1.2048 l -2.88207,0.75595 -3.614401,-0.0709 -1.08668,0.59059 -2.008,0.44884 -2.19699,-0.25986 z"
       id="path955"
       inkscape:connector-curvature="0" />
    <path
       style="color:#000000;font-style:normal;font-variant:normal;font-weight:normal;font-stretch:normal;font-size:medium;line-height:normal;font-family:sans-serif;font-variant-ligatures:normal;font-variant-position:normal;font-variant-caps:normal;font-variant-numeric:normal;font-variant-alternates:normal;font-feature-settings:normal;text-indent:0;text-align:start;text-decoration:none;text-decoration-line:none;text-decoration-style:solid;text-decoration-color:#000000;letter-spacing:normal;word-spacing:normal;text-transform:none;writing-mode:lr-tb;direction:ltr;text-orientation:mixed;dominant-baseline:auto;baseline-shift:baseline;text-anchor:start;white-space:normal;shape-padding:0;clip-rule:nonzero;display:inline;overflow:visible;visibility:visible;opacity:1;isolation:auto;mix-blend-mode:normal;color-interpolation:sRGB;color-interpolation-filters:linearRGB;solid-color:#000000;solid-opacity:1;vector-effect:none;fill:#97cde8;fill-opacity:1;fill-rule:nonzero;stroke:none;stroke-width:0.26458332px;stroke-linecap:butt;stroke-linejoin:miter;stroke-miterlimit:4;stroke-dasharray:none;stroke-dashoffset:0;stroke-opacity:1;color-rendering:auto;image-rendering:auto;shape-rendering:auto;text-rendering:auto;enable-background:accumulate"
       d="m 95.29509,197.29289 c 0,0 -1.00277,0.20734 -1.960959,0.76674 -0.4791,0.27971 -0.983962,0.54559 -1.34761,0.93375 -0.363652,0.38817 -0.766522,0.94148 -0.753571,1.43337 0.01299,0.49288 0.287071,0.97784 0.60742,1.4746 0.32035,0.49677 0.52823,0.86649 0.771851,1.37922 0.243609,0.51273 0.357269,1.01674 0.185539,1.53125 -0.171731,0.51451 -0.637519,1.05942 -1.615229,1.62305 -1.932831,1.11421 -5.297801,1.46209 -8.280041,2.07009 -1.49113,0.30399 -3.28431,0.52775 -4.56245,1.48999 -0.40595,0.30561 -0.72778,0.76989 -0.85547,1.26172 -0.14929,0.57502 -0.0873,1.09376 0.15625,1.77538 1.45603,4.07424 1.81991,4.4046 1.81991,4.4046 l 2.60263,-0.006 c 0,0 -0.5418,-1.19218 -2.51213,-4.57596 -0.53974,-0.97616 -0.386,-1.99535 0.25275,-2.50833 0.77726,-0.6261 1.88532,-0.77963 3.36171,-1.08062 2.95279,-0.60199 6.443991,-1.07377 8.4868,-2.25139 1.010099,-0.58229 1.5368,-1.41535 1.73632,-2.01314 0.19953,-0.59779 0.0619,-1.18498 -0.19726,-1.73047 -0.259181,-0.54549 -0.64108,-1.06191 -0.95508,-1.54883 -0.314,-0.48691 -0.55404,-0.9421 -0.564449,-1.33789 -0.0105,-0.39679 0.195199,-0.77997 0.531249,-1.13867 0.336039,-0.3587 0.79814,-0.68525 1.263671,-0.95703 0.931058,-0.54357 2.031871,-0.81263 2.031871,-0.81263 z"
       id="path997"
       inkscape:connector-curvature="0"
       sodipodi:nodetypes="csccsccssaacccccssscccsscc"
       inkscape:export-xdpi="300"
       inkscape:export-ydpi="300" />
    <path
       style="fill:none;stroke:#8abfda;stroke-width:0.465;stroke-linecap:butt;stroke-linejoin:miter;stroke-miterlimit:4;stroke-dasharray:none;stroke-opacity:1"
       d="m 79.46073,217.43665 c 0,0 -2.70315,-5.02366 -1.91804,-6.51035 0.7851,-1.48668 3.14042,-1.98782 3.14042,-1.98782 0,0 8.068192,-1.46999 8.836589,-1.80408 0.7684,-0.33408 3.023492,-0.98555 3.357581,-2.57246 0.01669,-1.08579 -1.035679,-2.40543 -1.41987,-3.10701 0,0 -0.7517,-1.18601 0.451011,-2.42213 1.202719,-1.23612 3.386669,-1.73991 3.386669,-1.73991"
       id="path999"
       inkscape:connector-curvature="0"
       sodipodi:nodetypes="cccccccc" />
    <path
       inkscape:connector-curvature="0"
       style="fill:#212121;fill-opacity:0.30303034;stroke:none;stroke-width:0.26458332px;stroke-linecap:butt;stroke-linejoin:miter;stroke-opacity:1"
       d="m 100.0638,201.66288 -3.830262,2.82153 0.475941,0.14004 2.331122,-1.7601 2.169379,0.31006 -0.93896,-1.23817 0.0646,-0.0491 z"
       id="path973" />
    <path
       inkscape:connector-curvature="0"
       id="path985"
       d="m 72.65397,215.24713 1.76672,-1.63094 -0.63783,-0.23624 3.18917,-1.35835 c 0,0 0.0709,2.09068 0.0118,2.14974 -0.059,0.0591 -1.39378,-0.1063 -1.39378,-0.1063 l -1.009671,1.18984 -1.0692,0.21575 z"
       style="fill:#282018;fill-opacity:0.23364485;stroke:none;stroke-width:0.26458332px;stroke-linecap:butt;stroke-linejoin:miter;stroke-opacity:1" />
    <path
       inkscape:connector-curvature="0"
       id="path987"
       d="m 68.31912,212.18324 1.03844,-1.35716 -0.78511,-1.1192 3.70837,-1.46998 -1.28624,3.35757 -0.90203,-0.11693 -0.36829,0.12994 -1.01817,0.53824 z"
       style="fill:#282018;fill-opacity:0.23364485;stroke:none;stroke-width:0.26458332px;stroke-linecap:butt;stroke-linejoin:miter;stroke-opacity:1" />
    <path
       inkscape:connector-curvature="0"
       id="path989"
       d="m 71.6095,207.1451 0.54102,0.18977 0.89841,-0.18398 1.07271,-0.51762 1.01896,0.11693 c 0,0 -0.0835,-2.12145 0.0501,-2.12145 0.13363,0 -2.13816,1.08578 -2.13816,1.08578 l 0.26727,0.86863 -0.7684,-0.36749 z"
       style="fill:#282018;fill-opacity:0.23364485;stroke:none;stroke-width:0.26458332px;stroke-linecap:butt;stroke-linejoin:miter;stroke-opacity:1" />
    <path
       inkscape:connector-curvature="0"
       id="path991"
       d="m 63.9659,207.2118 1.01512,-1.07966 -0.2252,-1.26147 4.95253,-1.86224 -0.96885,3.29076 -1.6122,-0.10351 -1.48287,0.62414 -0.9975,0.3647 z"
       style="fill:#282018;fill-opacity:0.23364485;stroke:none;stroke-width:0.26458332px;stroke-linecap:butt;stroke-linejoin:miter;stroke-opacity:1" />
    <path
       inkscape:connector-curvature="0"
       id="path993"
       d="m 68.76147,202.46703 0.96358,-0.57779 -0.36749,-0.81851 3.39098,-1.1526 -0.0501,1.88759 0.0167,0.61806 -1.85418,-0.46772 -0.69772,0.18413 -0.65533,0.26688 -0.74643,0.06"
       style="fill:#282018;fill-opacity:0.23364485;stroke:none;stroke-width:0.26458332px;stroke-linecap:butt;stroke-linejoin:miter;stroke-opacity:1" />
    <path
       inkscape:connector-curvature="0"
       id="path995"
       d="m 73.38863,200.22307 0.71463,0.13271 0.75493,-0.1268 1.58368,-0.94227 1.35145,0.37997 0.11853,-2.41791 -2.88985,0.56795 z"
       style="fill:#282018;fill-opacity:0.23364485;stroke:none;stroke-width:0.26458332px;stroke-linecap:butt;stroke-linejoin:miter;stroke-opacity:1" />
    <path
       style="display:inline;opacity:1;fill:#755c45;fill-opacity:1;stroke:none;stroke-width:0.26458332px;stroke-linecap:butt;stroke-linejoin:miter;stroke-opacity:1"
       d="m 64.08376,205.06447 c 0.11881,0.7652 0.0883,1.38798 -0.11786,2.14733 0,0 0.48365,0.0884 0.83734,-0.003 0.35369,-0.0914 0.8412,-0.38898 0.8412,-0.38898 0,0 -0.68036,-0.67623 -0.88862,-1.94915 z"
       id="path5562-6"
       inkscape:connector-curvature="0"
       sodipodi:nodetypes="cccccc"
       inkscape:export-xdpi="300"
       inkscape:export-ydpi="300" />
    <path
       sodipodi:nodetypes="cccccc"
       inkscape:connector-curvature="0"
       id="path5584-4"
       d="m 68.85989,200.67377 c 0.0992,0.63902 0.0737,1.15912 -0.0984,1.79326 0,0 0.4039,0.0739 0.69927,-0.002 0.29536,-0.0763 0.70249,-0.32484 0.70249,-0.32484 0,0 -0.56817,-0.56473 -0.74209,-1.62775 z"
       style="display:inline;opacity:1;fill:#755c45;fill-opacity:1;stroke:none;stroke-width:0.22095567px;stroke-linecap:butt;stroke-linejoin:miter;stroke-opacity:1"
       inkscape:export-xdpi="300"
       inkscape:export-ydpi="300" />
    <path
       style="display:inline;opacity:1;fill:#755c45;fill-opacity:1;stroke:none;stroke-width:0.22095567px;stroke-linecap:butt;stroke-linejoin:miter;stroke-opacity:1"
       d="m 71.46514,205.77399 c -0.0512,0.64465 -0.1963,1.14475 -0.51045,1.72189 0,0 0.37587,0.16526 0.68086,0.15938 0.30501,-0.006 0.75857,-0.15359 0.75857,-0.15359 0,0 -0.42217,-0.68081 -0.34555,-1.75524 z"
       id="path5588-5"
       inkscape:connector-curvature="0"
       sodipodi:nodetypes="cccccc"
       inkscape:export-xdpi="300"
       inkscape:export-ydpi="300" />
    <path
       sodipodi:nodetypes="cccccc"
       inkscape:connector-curvature="0"
       id="path5592-8"
       d="m 73.33711,212.94269 c -0.0686,0.86275 -0.26271,1.53205 -0.68314,2.30444 0,0 0.50303,0.22115 0.91121,0.21328 0.4082,-0.008 1.01521,-0.20553 1.01521,-0.20553 0,0 -0.565,-0.91114 -0.46246,-2.34907 z"
       style="display:inline;opacity:1;fill:#755c45;fill-opacity:1;stroke:none;stroke-width:0.29570854px;stroke-linecap:butt;stroke-linejoin:miter;stroke-opacity:1"
       inkscape:export-xdpi="300"
       inkscape:export-ydpi="300" />
    <path
       style="display:inline;opacity:1;fill:#755c45;fill-opacity:1;stroke:none;stroke-width:0.23309322px;stroke-linecap:butt;stroke-linejoin:miter;stroke-opacity:1"
       d="m 68.12109,210.299 c 0.21043,0.64895 0.27108,1.19491 0.19803,1.88424 0,0 0.43305,0.009 0.7279,-0.11969 0.29495,-0.12875 0.67724,-0.45607 0.67724,-0.45607 0,0 -0.68642,-0.49296 -1.04572,-1.57099 z"
       id="path5596-5"
       inkscape:connector-curvature="0"
       sodipodi:nodetypes="cccccc"
       inkscape:export-xdpi="300"
       inkscape:export-ydpi="300" />
    <path
       style="display:inline;opacity:1;fill:#755c45;fill-opacity:1;stroke:none;stroke-width:0.22557938px;stroke-linecap:butt;stroke-linejoin:miter;stroke-opacity:1"
       d="m 73.810541,198.20056 c -0.0523,0.65814 -0.20041,1.16871 -0.52113,1.75793 0,0 0.38373,0.1687 0.69511,0.1627 0.31139,-0.006 0.77445,-0.15679 0.77445,-0.15679 0,0 -0.43101,-0.69506 -0.35279,-1.79198 z"
       id="path5615-0"
       inkscape:connector-curvature="0"
       sodipodi:nodetypes="cccccc"
       inkscape:export-xdpi="300"
       inkscape:export-ydpi="300" />
    <path
       sodipodi:nodetypes="cccccc"
       inkscape:connector-curvature="0"
       id="path5721-7"
       d="m 94.92442,213.93423 c -0.0495,0.68042 0.02191,1.22507 0.257341,1.87707 0,0 -0.418391,0.11208 -0.73543,0.0575 -0.317161,-0.0546 -0.766501,-0.28127 -0.766501,-0.28127 0,0 0.548939,-0.64253 0.640601,-1.77516 z"
       style="display:inline;opacity:1;fill:#755c45;fill-opacity:1;stroke:none;stroke-width:0.23309322px;stroke-linecap:butt;stroke-linejoin:miter;stroke-opacity:1"
       inkscape:export-xdpi="300"
       inkscape:export-ydpi="300" />
    <path
       style="display:inline;opacity:1;fill:#755c45;fill-opacity:1;stroke:none;stroke-width:0.22095567px;stroke-linecap:butt;stroke-linejoin:miter;stroke-opacity:1"
       d="m 98.859951,209.96103 c 0.0992,0.63902 0.0738,1.15911 -0.0984,1.79325 0,0 0.4039,0.0739 0.699259,-0.002 0.295371,-0.0763 0.7025,-0.32483 0.7025,-0.32483 0,0 -0.568168,-0.56473 -0.7421,-1.62776 z"
       id="path5747-5"
       inkscape:connector-curvature="0"
       sodipodi:nodetypes="cccccc"
       inkscape:export-xdpi="300"
       inkscape:export-ydpi="300" />
    <path
       style="display:inline;opacity:1;fill:#755c45;fill-opacity:1;stroke:none;stroke-width:0.2464094px;stroke-linecap:butt;stroke-linejoin:miter;stroke-opacity:1"
       d="m 88.51456,213.16554 c 0.0876,0.71584 0.27291,1.26619 0.650251,1.89436 0,0 -0.41098,0.2019 -0.75116,0.20949 -0.34013,0.007 -0.852472,-0.1352 -0.852472,-0.1352 0,0 0.438161,-0.77855 0.301932,-1.97205 z"
       id="path5717-5"
       inkscape:connector-curvature="0"
       sodipodi:nodetypes="cccccc"
       inkscape:export-xdpi="300"
       inkscape:export-ydpi="300" />
    <path
       style="display:inline;opacity:1;fill:#294337;fill-opacity:1;stroke:none;stroke-width:0.26458332px;stroke-linecap:butt;stroke-linejoin:miter;stroke-opacity:1"
       d="m 63.709978,200.28675 -1.355623,1.9367 c 0,0 0.225346,0.15925 0.690658,0.23993 l -1.038498,1.48424 c 0,0 0.273258,0.1894 0.827581,0.30549 l -1.061447,1.51679 c 0,0 0.912985,0.65597 2.866744,0.4311 1.953761,-0.22486 2.749308,-1.44525 2.749308,-1.44525 l -1.48329,-0.98471 c 0.500152,-0.32053 0.730031,-0.65879 0.730031,-0.65879 l -1.491513,-0.99018 c 0.392712,-0.23999 0.569345,-0.50473 0.569345,-0.50473 z"
       id="path5560-8"
       inkscape:connector-curvature="0"
       inkscape:export-xdpi="300"
       inkscape:export-ydpi="300" />
    <path
       inkscape:connector-curvature="0"
       id="path5586-4"
       d="m 68.547746,196.68386 -1.132092,1.61735 c 0,0 0.188188,0.133 0.576774,0.20037 l -0.867258,1.2395 c 0,0 0.2282,0.15817 0.69112,0.25512 l -0.886423,1.26669 c 0,0 0.762441,0.5478 2.394041,0.36001 1.631601,-0.18779 2.295971,-1.20694 2.295971,-1.20694 l -1.238709,-0.82234 c 0.417681,-0.26768 0.609654,-0.55016 0.609654,-0.55016 l -1.245574,-0.82691 c 0.327957,-0.20042 0.475465,-0.4215 0.475465,-0.4215 z"
       style="display:inline;opacity:1;fill:#294337;fill-opacity:1;stroke:none;stroke-width:0.22095567px;stroke-linecap:butt;stroke-linejoin:miter;stroke-opacity:1"
       inkscape:export-xdpi="300"
       inkscape:export-ydpi="300" />
    <path
       style="display:inline;opacity:1;fill:#294337;fill-opacity:1;stroke:none;stroke-width:0.22095567px;stroke-linecap:butt;stroke-linejoin:miter;stroke-opacity:1"
       d="m 72.084129,201.82005 -1.475424,1.31171 c 0,0 0.152332,0.17291 0.514804,0.32832 l -1.130387,1.00534 c 0,0 0.185436,0.20666 0.613388,0.40803 l -1.155319,1.02736 c 0,0 0.615093,0.70928 2.245898,0.90389 1.6308,0.19461 2.51284,-0.64328 2.51284,-0.64328 l -1.01496,-1.08651 c 0.46826,-0.16383 0.72035,-0.39426 0.72035,-0.39426 l -1.02059,-1.09253 c 0.36542,-0.11915 0.56005,-0.30013 0.56005,-0.30013 z"
       id="path5590-2"
       inkscape:connector-curvature="0"
       inkscape:export-xdpi="300"
       inkscape:export-ydpi="300" />
    <path
       inkscape:connector-curvature="0"
       id="path5594-6"
       d="m 74.165519,207.65106 -1.97458,1.7555 c 0,0 0.20386,0.2314 0.68897,0.43939 l -1.51282,1.34547 c 0,0 0.24817,0.27657 0.82091,0.54606 l -1.546183,1.37495 c 0,0 0.823193,0.94923 3.005713,1.20966 2.18253,0.26047 3.36298,-0.86089 3.36298,-0.86089 l -1.35834,-1.4541 c 0.62668,-0.21925 0.96406,-0.52765 0.96406,-0.52765 l -1.36587,-1.46215 c 0.48905,-0.15946 0.74953,-0.40167 0.74953,-0.40167 z"
       style="display:inline;opacity:1;fill:#294337;fill-opacity:1;stroke:none;stroke-width:0.29570854px;stroke-linecap:butt;stroke-linejoin:miter;stroke-opacity:1"
       inkscape:export-xdpi="300"
       inkscape:export-ydpi="300" />
    <path
       style="display:inline;opacity:1;fill:#294337;fill-opacity:1;stroke:none;stroke-width:0.23309322px;stroke-linecap:butt;stroke-linejoin:miter;stroke-opacity:1"
       d="m 67.127298,206.19568 -0.908053,1.87426 c 0,0 0.218291,0.10698 0.63431,0.11203 l -0.695549,1.43633 c 0,0 0.264188,0.1265 0.762583,0.14989 l -0.710952,1.46785 c 0,0 0.885917,0.44278 2.553809,-0.0263 1.6679,-0.46902 2.18906,-1.64186 2.18906,-1.64186 l -1.427977,-0.6489 c 0.390169,-0.34879 0.542772,-0.67518 0.542772,-0.67518 l -1.435891,-0.65251 c 0.307989,-0.2637 0.424571,-0.51869 0.424571,-0.51869 z"
       id="path5598-0"
       inkscape:connector-curvature="0"
       inkscape:export-xdpi="300"
       inkscape:export-ydpi="300" />
    <path
       style="display:inline;opacity:1;fill:#294337;fill-opacity:1;stroke:none;stroke-width:0.22557938px;stroke-linecap:butt;stroke-linejoin:miter;stroke-opacity:1"
       d="m 74.278781,194.09372 -1.5063,1.33916 c 0,0 0.15552,0.17653 0.52558,0.33519 l -1.15404,1.02638 c 0,0 0.18932,0.21099 0.62622,0.41657 l -1.17949,1.04886 c 0,0 0.62796,0.72412 2.29289,0.92279 1.66493,0.1987 2.56542,-0.65672 2.56542,-0.65672 l -1.0362,-1.10925 c 0.47806,-0.16726 0.73543,-0.40251 0.73543,-0.40251 l -1.04194,-1.1154 c 0.37306,-0.12164 0.57177,-0.30641 0.57177,-0.30641 z"
       id="path5617-3"
       inkscape:connector-curvature="0"
       inkscape:export-xdpi="300"
       inkscape:export-ydpi="300" />
    <path
       inkscape:connector-curvature="0"
       id="path5723-4"
       d="m 94.910288,209.71232 1.329092,1.60341 c 0,0 -0.186459,0.15598 -0.589251,0.26017 l 1.01822,1.22883 c 0,0 -0.226369,0.18591 -0.704781,0.32755 l 1.040702,1.25578 c 0,0 -0.754661,0.64139 -2.486311,0.58389 -1.73164,-0.0574 -2.517619,-1.07201 -2.517619,-1.07201 l 1.231868,-0.97089 C 92.770079,212.68345 92.544,212.4029 92.544,212.4029 l 1.23869,-0.97632 C 93.420668,211.244 93.246609,211.0242 93.246609,211.0242 Z"
       style="display:inline;opacity:1;fill:#294337;fill-opacity:1;stroke:none;stroke-width:0.23309322px;stroke-linecap:butt;stroke-linejoin:miter;stroke-opacity:1"
       inkscape:export-xdpi="300"
       inkscape:export-ydpi="300" />
    <path
       style="display:inline;opacity:1;fill:#294337;fill-opacity:1;stroke:none;stroke-width:0.22095567px;stroke-linecap:butt;stroke-linejoin:miter;stroke-opacity:1"
       d="m 98.547798,205.97111 -1.132088,1.61735 c 0,0 0.18819,0.13299 0.576778,0.20037 l -0.867259,1.23949 c 0,0 0.228201,0.15818 0.691121,0.25513 l -0.886431,1.26668 c 0,0 0.762439,0.54781 2.39404,0.36001 1.631611,-0.18778 2.295971,-1.20693 2.295971,-1.20693 l -1.2387,-0.82235 c 0.41768,-0.26767 0.60965,-0.55016 0.60965,-0.55016 l -1.245569,-0.8269 c 0.327949,-0.20043 0.475459,-0.42151 0.475459,-0.42151 z"
       id="path5749-4"
       inkscape:connector-curvature="0"
       inkscape:export-xdpi="300"
       inkscape:export-ydpi="300" />
    <path
       style="display:inline;opacity:1;fill:#294337;fill-opacity:1;stroke:none;stroke-width:0.2464094px;stroke-linecap:butt;stroke-linejoin:miter;stroke-opacity:1"
       d="m 87.637721,208.78938 1.705999,1.39166 c 0,0 -0.16155,0.19986 -0.558052,0.39018 l 1.30706,1.06664 c 0,0 -0.196839,0.23903 -0.66412,0.48366 l 1.335882,1.08999 c 0,0 -0.651762,0.81938 -2.45958,1.11341 -1.807811,0.29404 -2.830241,-0.59778 -2.830241,-0.59778 l 1.07943,-1.25862 c -0.52948,-0.16038 -0.82127,-0.40519 -0.82127,-0.40519 l 1.08541,-1.26561 c -0.41278,-0.11545 -0.63821,-0.30789 -0.63821,-0.30789 z"
       id="path5719-0"
       inkscape:connector-curvature="0"
       inkscape:export-xdpi="300"
       inkscape:export-ydpi="300" />
    <path
       inkscape:export-ydpi="300"
       inkscape:export-xdpi="300"
       inkscape:transform-center-y="2.7555636"
       inkscape:transform-center-x="-7.577767"
       inkscape:connector-curvature="0"
       id="path4828-4-2"
       d="m 97.3314,188.71162 c -2.28682,0 -2.998361,0.60961 -4.162782,1.17549 -1.164428,0.56587 -3.302619,-0.23111 -3.302619,-0.23111 l -0.86301,9.22119 c 0,0 1.470599,-0.81874 3.149711,-2.08409 1.07642,-0.81117 2.48611,-1.26467 3.13894,-1.47528 1.223709,-0.44156 1.17238,-0.45308 2.668188,-0.0174 0,0 0.103391,0.005 0.124733,-0.69237 0.044,0.0363 0.0865,0.0681 0.12727,0.0947 0.645678,0.42033 0.766138,0.37293 0.766138,0.37293 0,0 0.105211,-0.001 0.0668,-0.71675 -0.0011,-0.0258 -0.009,-0.0558 -0.0136,-0.0842 0.0842,0.0726 0.164642,0.1352 0.238392,0.17951 0.66044,0.39675 0.779119,0.34507 0.779119,0.34507 0,0 0.10541,-0.006 0.0412,-0.71896 -0.006,-0.0608 -0.0252,-0.13061 -0.0507,-0.20388 0.14692,0.10537 0.28531,0.19161 0.40365,0.24187 0.70911,0.30127 0.81932,0.23364 0.81932,0.23364 0,0 0.10377,-0.02 -0.0589,-0.7177 -0.008,-0.0325 -0.0221,-0.068 -0.0364,-0.10352 0.1288,0.0585 0.24817,0.10409 0.35047,0.12822 0.74988,0.17687 0.84718,0.0915 0.84718,0.0915 0,0 0.0986,-0.0371 -0.17982,-0.69712 -0.006,-0.014 -0.017,-0.0293 -0.0244,-0.0437 0.15099,0.0452 0.29013,0.0776 0.40459,0.0874 0.76769,0.0654 0.8513,-0.0333 0.8513,-0.0333 0,0 0.0923,-0.0513 -0.27954,-0.66357 -0.0216,-0.0355 -0.0508,-0.0719 -0.0836,-0.10859 0.15483,0.0271 0.29639,0.043 0.41093,0.0393 0.77006,-0.0252 0.84149,-0.13328 0.84149,-0.13328 0,0 0.0856,-0.0615 -0.35552,-0.62589 -0.008,-0.01 -0.0202,-0.0201 -0.0291,-0.0301 0.0418,-0.002 0.0834,-0.004 0.11998,-0.008 0.76402,-0.0995 0.82471,-0.21402 0.82471,-0.21402 0,0 0.0718,-0.0692 -0.3856,-0.55687 0.43649,0.009 0.85815,-0.008 1.11691,-0.0867 0.73684,-0.22514 0.77785,-0.34793 0.77785,-0.34793 0,0 0.0665,-0.0818 -0.50653,-0.5116 -0.39707,-0.29779 -1.60363,-0.36705 -2.33832,-0.38307 -2.03867,-0.3328 -4.482913,-0.7215 -6.198432,-0.7215 z"
       style="display:inline;opacity:1;fill:#343030;fill-opacity:1;stroke:none;stroke-width:0.1620919px;stroke-linecap:butt;stroke-linejoin:miter;stroke-opacity:1" />
    <path
       inkscape:export-filename="C:\Users\Adam\puffin_down.png"
       inkscape:export-ydpi="300"
       inkscape:export-xdpi="300"
       style="display:inline;opacity:1;vector-effect:none;fill:#ec875f;fill-opacity:1;stroke:none;stroke-width:0.35522336;stroke-linecap:round;stroke-linejoin:miter;stroke-miterlimit:4;stroke-dasharray:none;stroke-dashoffset:0;stroke-opacity:1"
       d="m 85.311089,199.76833 c -0.0557,-0.0106 -0.1145,-0.0101 -0.17354,0.003 -0.23614,0.0519 -0.38457,0.28384 -0.33269,0.51996 l 0.75503,3.58477 c -0.69329,0.42747 -0.93907,1.10057 -0.91436,1.26116 0.0247,0.16059 1.56265,0.47926 2.438601,0.59102 0.848048,0.10558 2.82787,-0.002 2.94898,-0.44187 0.12111,-0.43955 -2.45858,-1.69661 -3.538281,-1.43928 -0.016,-0.001 -0.0322,-0.003 -0.0485,-0.004 l -0.78927,-3.73965 c -0.0389,-0.17712 -0.17881,-0.30481 -0.34606,-0.33568 z"
       id="path4830-6-3"
       inkscape:connector-curvature="0"
       sodipodi:nodetypes="cccczczccccc" />
    <path
       inkscape:export-filename="C:\Users\Adam\puffin_down.png"
       inkscape:export-ydpi="300"
       inkscape:export-xdpi="300"
       sodipodi:nodetypes="cccccccsssccccccc"
       inkscape:connector-curvature="0"
       id="path4832-0-5"
       d="m 89.28707,179.53238 c -1.948011,-0.16698 -3.660271,1.15578 -4.039741,3.11319 -0.37947,1.95742 -0.67896,4.02331 -0.90412,5.84823 -3.91351,2.50254 -6.45642,6.67853 -6.92485,10.49261 l -0.0218,-0.005 c -0.24561,1.23447 -1.03476,2.36867 -1.91646,3.2669 0.58314,0.13642 1.36341,0.23566 1.95949,0.29355 0.97674,0.0794 2.12521,0.0105 3.10482,0.0369 5.12244,0.13754 9.517629,-3.07205 11.570439,-8.15531 0.418931,-1.03732 0.2907,-2.3258 -0.174051,-3.19022 -0.528457,-0.98283 -0.806188,-2.09548 -0.709628,-3.23383 0.036,-0.38831 0.112278,-0.77183 0.22783,-1.1443 0.35511,0.0932 0.716999,0.15834 1.08232,0.19483 1.166368,0.0983 2.338779,-0.0974 3.410109,-0.5689 -0.265329,-2.43918 -1.787409,-4.56178 -4.01252,-5.59564 -0.674979,-0.77793 -1.62582,-1.26316 -2.65181,-1.35323 z"
       style="display:inline;opacity:1;vector-effect:none;fill:#343030;fill-opacity:1;stroke:none;stroke-width:0.30631539;stroke-linecap:round;stroke-linejoin:miter;stroke-miterlimit:4;stroke-dasharray:none;stroke-dashoffset:0;stroke-opacity:1" />
    <path
       inkscape:export-filename="C:\Users\Adam\puffin_down.png"
       inkscape:export-ydpi="300"
       inkscape:export-xdpi="300"
       sodipodi:nodetypes="czzzccc"
       inkscape:connector-curvature="0"
       id="path4834-9-2"
       d="m 91.93888,180.88562 c 0,0 -1.148181,-0.41128 -2.410021,-0.0815 -1.26183,0.32974 -3.62539,1.9906 -3.65,2.27546 -0.0246,0.28485 1.58615,2.05117 3.041699,2.83438 1.455542,0.78321 2.53841,0.94139 2.53841,0.94139 0.485561,-1.86843 0.930571,-3.75199 0.479901,-5.96971 z"
       style="display:inline;opacity:1;fill:#e9e8e3;fill-opacity:0.9953271;stroke:none;stroke-width:0.1620919px;stroke-linecap:butt;stroke-linejoin:miter;stroke-opacity:1" />
    <path
       inkscape:export-filename="C:\Users\Adam\puffin_down.png"
       inkscape:export-ydpi="300"
       inkscape:export-xdpi="300"
       inkscape:connector-curvature="0"
       id="path4836-6-4"
       d="m 91.938869,180.88562 c 0.450681,2.21771 0.005,4.10126 -0.47989,5.96969 0.30526,0.0801 0.61568,0.13822 0.92883,0.1765 0.35837,-0.52801 0.842481,-1.28151 1.041511,-1.81284 0.25018,-0.66785 0.396859,-1.91242 0.48146,-2.95907 -0.565841,-0.55973 -1.228421,-1.02884 -1.9719,-1.37428 z"
       style="display:inline;opacity:1;vector-effect:none;fill:#ec875f;fill-opacity:1;stroke:none;stroke-width:0.30631539;stroke-linecap:round;stroke-linejoin:miter;stroke-miterlimit:4;stroke-dasharray:none;stroke-dashoffset:0;stroke-opacity:1" />
    <path
       inkscape:export-filename="C:\Users\Adam\puffin_down.png"
       inkscape:export-ydpi="300"
       inkscape:export-xdpi="300"
       inkscape:connector-curvature="0"
       id="path4838-0-0"
       d="m 94.39932,182.79177 c 0.098,0.69778 0.177591,1.4191 0.182509,1.94903 0.006,0.61117 -0.0494,1.43585 -0.11611,2.20193 0.50881,-0.0989 1.0076,-0.25106 1.48567,-0.46148 -0.149799,-1.37716 -0.70068,-2.65313 -1.552069,-3.68948 z"
       style="display:inline;opacity:1;vector-effect:none;fill:#f56356;fill-opacity:1;stroke:none;stroke-width:0.30631539;stroke-linecap:round;stroke-linejoin:miter;stroke-miterlimit:4;stroke-dasharray:none;stroke-dashoffset:0;stroke-opacity:1" />
    <path
       inkscape:export-filename="C:\Users\Adam\puffin_down.png"
       inkscape:export-ydpi="300"
       inkscape:export-xdpi="300"
       sodipodi:nodetypes="szcsczs"
       inkscape:connector-curvature="0"
       id="path4840-9-4"
       d="m 88.783229,183.22762 c -0.0643,-0.17507 0.65628,-0.59167 1.032761,-0.75523 0.376471,-0.16355 0.76681,-0.17296 1.108401,-0.13113 0.0925,0.23313 0.125838,0.43649 0.137347,0.6648 0.01201,0.23757 -0.02479,0.46711 -0.0712,0.71005 -0.55513,-0.0479 -0.697079,-0.1215 -1.167641,-0.24755 -0.470558,-0.12607 -0.991589,-0.11004 -1.039648,-0.24094 z"
       style="display:inline;opacity:1;fill:#090607;fill-opacity:1;stroke:none;stroke-width:0.1620919px;stroke-linecap:butt;stroke-linejoin:miter;stroke-opacity:1" />
    <path
       inkscape:export-filename="C:\Users\Adam\puffin_down.png"
       inkscape:export-ydpi="300"
       inkscape:export-xdpi="300"
       style="display:inline;opacity:1;vector-effect:none;fill:#e9e8e3;fill-opacity:1;stroke:none;stroke-width:0.26994532;stroke-linecap:round;stroke-linejoin:miter;stroke-miterlimit:4;stroke-dasharray:none;stroke-dashoffset:0;stroke-opacity:1"
       d="m 83.917599,190.54128 c -1.1959,1.38591 -2.46157,3.4573 -3.42678,5.2848 -0.99589,1.88558 -2.40938,5.14364 -2.35843,5.26234 0.26718,0.40319 0.16543,0.71305 0.74531,0.78309 6.44048,0.77794 10.57356,-3.25588 11.701691,-5.77293 1.12812,-2.51705 1.503079,-3.08738 0.724048,-4.9136 -0.589468,-0.89735 -0.349269,-2.77635 -1.109909,-2.79001 -3.46484,-0.0623 -5.06616,0.74432 -6.27593,2.14631 z"
       id="path4842-7-7"
       inkscape:connector-curvature="0"
       sodipodi:nodetypes="sscszcss" />
    <path
       inkscape:export-filename="C:\Users\Adam\puffin_down.png"
       inkscape:export-ydpi="300"
       inkscape:export-xdpi="300"
       sodipodi:nodetypes="cccczczccccc"
       inkscape:connector-curvature="0"
       id="path4844-3-4"
       d="m 79.881299,200.7826 c -0.0567,-1.6e-4 -0.11439,0.0113 -0.17,0.035 -0.22249,0.0946 -0.32552,0.35001 -0.23091,0.57248 l 1.60685,3.77436 c -0.6576,0.25448 -1.38702,1.15675 -1.32964,1.32824 0.0574,0.17149 1.51989,0.28615 2.40141,0.23417 0.85297,-0.0528 2.4183,-0.35545 2.4683,-0.64789 0.05,-0.29244 -1.5837,-1.1792 -2.62657,-1.11569 -0.0161,0.002 -0.0322,0.003 -0.0481,0.006 l -1.6691,-3.92025 c -0.071,-0.16686 -0.23203,-0.26652 -0.40212,-0.26598 z"
       style="display:inline;opacity:1;vector-effect:none;fill:#ec875f;fill-opacity:1;stroke:none;stroke-width:0.35522336;stroke-linecap:round;stroke-linejoin:miter;stroke-miterlimit:4;stroke-dasharray:none;stroke-dashoffset:0;stroke-opacity:1" />
    <path
       style="display:inline;opacity:1;fill:#343030;fill-opacity:1;stroke:none;stroke-width:0.19145125px;stroke-linecap:butt;stroke-linejoin:miter;stroke-opacity:1"
       d="m 76.348939,185.8627 c 2.60119,0.72758 3.83881,1.50378 4.98327,2.51793 1.14446,1.01414 3.62709,0.1787 3.62709,0.1787 l -7.43492,11.27105 c 0.0701,-2.38233 -0.16744,-3.86486 -1.22786,-5.49977 -0.64548,-1.01074 -0.91864,-1.19296 -2.7587,-1.1733 0,0 -0.11915,-0.0273 0.0784,-0.82723 -0.0617,0.0272 -0.12007,0.05 -0.17487,0.0672 -0.86817,0.27268 -0.99011,0.18045 -0.99011,0.18045 0,0 -0.1193,-0.0349 0.15205,-0.83654 0.01,-0.029 0.0274,-0.0608 0.0423,-0.0915 -0.11884,0.0558 -0.23029,0.10141 -0.32828,0.12834 -0.87746,0.24116 -0.99601,0.14463 -0.99601,0.14463 0,0 -0.11814,-0.0398 0.18192,-0.8309 0.0256,-0.0674 0.0702,-0.14055 0.12249,-0.21579 -0.20064,0.0731 -0.3855,0.12717 -0.53608,0.14669 -0.902458,0.11707 -1.006292,0.005 -1.006292,0.005 0,0 -0.111665,-0.0558 0.295312,-0.79762 0.01899,-0.0345 0.0468,-0.0704 0.07433,-0.10618 -0.165123,0.0256 -0.315407,0.0394 -0.439434,0.0343 -0.909249,-0.0374 -0.992756,-0.16547 -0.992756,-0.16547 0,0 -0.100343,-0.0735 0.426336,-0.73574 0.01146,-0.0139 0.02867,-0.0279 0.0416,-0.0419 -0.186148,0.003 -0.354713,-0.004 -0.488009,-0.0293 -0.894018,-0.16991 -0.957744,-0.30869 -0.957744,-0.30869 0,0 -0.08872,-0.0878 0.529092,-0.66584 0.03584,-0.0335 0.08064,-0.0656 0.129614,-0.0969 -0.18472,-0.0185 -0.350804,-0.0454 -0.47991,-0.0861 -0.867902,-0.27365 -0.914762,-0.41934 -0.914762,-0.41934 0,0 -0.07783,-0.0972 0.603539,-0.59882 0.01207,-0.009 0.02941,-0.0164 0.0427,-0.025 -0.04699,-0.0154 -0.09371,-0.0307 -0.13386,-0.0475 -0.837405,-0.35622 -0.869991,-0.50582 -0.869991,-0.50582 0,0 -0.05961,-0.10158 0.61578,-0.51075 -0.499454,-0.12828 -0.973679,-0.28174 -1.24285,-0.45402 -0.7665,-0.49053 -0.77409,-0.64324 -0.77409,-0.64324 0,0 -0.04962,-0.11422 0.738943,-0.42077 0.546381,-0.21241 1.940839,0.0927 2.781632,0.30823 2.4248,0.27007 5.32872,0.6056 7.28007,1.15141 z"
       id="path4846-7-2"
       inkscape:connector-curvature="0"
       inkscape:transform-center-x="8.7762161"
       inkscape:transform-center-y="1.3966512"
       inkscape:export-xdpi="300"
       inkscape:export-ydpi="300"
       sodipodi:nodetypes="cccccccccccccccccccccccccccccccccccccccc" />
    <rect
       style="display:inline;opacity:1;vector-effect:none;fill:#755c45;fill-opacity:1;stroke:none;stroke-width:0.5;stroke-linecap:round;stroke-linejoin:miter;stroke-miterlimit:4;stroke-dasharray:none;stroke-dashoffset:0;stroke-opacity:1"
       id="rect5735-3"
       width="0.49609375"
       height="7.7390623"
       x="150.06374"
       y="161.24529"
       rx="0.10158183"
       ry="0.10158183"
       transform="rotate(16.403738)"
       inkscape:export-xdpi="300"
       inkscape:export-ydpi="300" />
    <path
       style="display:inline;opacity:1;fill:#f56356;fill-opacity:1;stroke:none;stroke-width:0.26458332px;stroke-linecap:butt;stroke-linejoin:miter;stroke-opacity:1"
       d="m 98.698349,197.36819 3.542991,2.80633 -4.419971,-0.0585 z"
       id="path5739-8"
       inkscape:connector-curvature="0"
       inkscape:export-xdpi="300"
       inkscape:export-ydpi="300" />
  </g>
</svg>
