<?xml version="1.0" encoding="UTF-8" standalone="no"?>
<!-- Created with Inkscape (http://www.inkscape.org/) -->

<svg
   xmlns:dc="http://purl.org/dc/elements/1.1/"
   xmlns:cc="http://creativecommons.org/ns#"
   xmlns:rdf="http://www.w3.org/1999/02/22-rdf-syntax-ns#"
   xmlns:svg="http://www.w3.org/2000/svg"
   xmlns="http://www.w3.org/2000/svg"
   xmlns:sodipodi="http://sodipodi.sourceforge.net/DTD/sodipodi-0.dtd"
   xmlns:inkscape="http://www.inkscape.org/namespaces/inkscape"
   width="33.415451mm"
   height="44.433472mm"
   viewBox="0 0 33.415451 44.433472"
   version="1.1"
   id="svg9565"
   inkscape:version="0.92.4 (5da689c313, 2019-01-14)"
   sodipodi:docname="idle-puffin.svg">
  <defs
     id="defs9559" />
  <sodipodi:namedview
     id="base"
     pagecolor="#ffffff"
     bordercolor="#666666"
     borderopacity="1.0"
     inkscape:pageopacity="0.0"
     inkscape:pageshadow="2"
     inkscape:zoom="1.4"
     inkscape:cx="192.74792"
     inkscape:cy="-51.869434"
     inkscape:document-units="mm"
     inkscape:current-layer="layer1"
     showgrid="false"
     fit-margin-top="0"
     fit-margin-left="0"
     fit-margin-right="0"
     fit-margin-bottom="0"
     inkscape:window-width="2560"
     inkscape:window-height="1377"
     inkscape:window-x="2552"
     inkscape:window-y="-8"
     inkscape:window-maximized="1" />
  <metadata
     id="metadata9562">
    <rdf:RDF>
      <cc:Work
         rdf:about="">
        <dc:format>image/svg+xml</dc:format>
        <dc:type
           rdf:resource="http://purl.org/dc/dcmitype/StillImage" />
        <dc:title></dc:title>
      </cc:Work>
    </rdf:RDF>
  </metadata>
  <g
     inkscape:label="Vrstva 1"
     inkscape:groupmode="layer"
     id="layer1"
     transform="translate(-39.23275,-137.95588)">
    <path
       inkscape:export-filename="C:\Users\Adam\puffin_down.png"
       inkscape:export-ydpi="300"
       inkscape:export-xdpi="300"
       style="display:inline;opacity:1;vector-effect:none;fill:#ed875f;fill-opacity:1;stroke:none;stroke-width:0.57983267;stroke-linecap:round;stroke-linejoin:miter;stroke-miterlimit:4;stroke-dasharray:none;stroke-dashoffset:0;stroke-opacity:1"
       d="m 55.279942,171.01027 c -0.091,-0.0173 -0.1869,-0.0165 -0.28328,0.005 -0.38545,0.0847 -0.62774,0.46332 -0.54305,0.84874 l 1.23244,5.85143 c -1.13166,0.69777 -1.53285,1.79647 -1.49251,2.0586 0.0404,0.26213 2.55071,0.78229 3.98053,0.96472 1.38427,0.17234 4.61595,-0.003 4.81364,-0.72126 0.19769,-0.71748 -4.01315,-2.76939 -5.77556,-2.34935 -0.0262,-0.002 -0.0526,-0.005 -0.0791,-0.006 l -1.28833,-6.10424 c -0.0635,-0.28911 -0.29186,-0.49754 -0.56487,-0.54793 z"
       id="path4796"
       inkscape:connector-curvature="0"
       sodipodi:nodetypes="cccczczccccc" />
    <path
       inkscape:export-filename="C:\Users\Adam\puffin_down.png"
       inkscape:export-ydpi="300"
       inkscape:export-xdpi="300"
       sodipodi:nodetypes="cccccccsssccccccc"
       inkscape:connector-curvature="0"
       id="path4798"
       d="m 61.769942,137.97905 c -3.17974,-0.27257 -5.97467,1.88657 -6.59409,5.08168 -0.61941,3.19511 -1.10827,6.56726 -1.4758,9.54608 -6.388032,4.0849 -10.538832,10.90139 -11.303452,17.12714 l -0.0356,-0.008 c -0.40091,2.01502 -1.68904,3.86639 -3.12825,5.33257 0.95186,0.22267 2.2255,0.38467 3.19849,0.47916 1.59434,0.12964 3.46898,0.0172 5.068,0.0602 8.361392,0.22451 15.535672,-5.01452 18.886491,-13.31194 0.683821,-1.69322 0.474512,-3.79642 -0.28411,-5.20741 -0.862609,-1.60427 -1.315939,-3.42047 -1.158329,-5.2786 0.0588,-0.63384 0.18328,-1.25986 0.37189,-1.86785 0.579641,0.15214 1.17036,0.25848 1.766681,0.31803 1.90387,0.16039 3.817609,-0.15891 5.566339,-0.92861 -0.4331,-3.98148 -2.917609,-7.44621 -6.54966,-9.13378 -1.10178,-1.26982 -2.65384,-2.06186 -4.32857,-2.2089 z"
       style="display:inline;opacity:1;vector-effect:none;fill:#34302f;fill-opacity:1;stroke:none;stroke-width:0.5;stroke-linecap:round;stroke-linejoin:miter;stroke-miterlimit:4;stroke-dasharray:none;stroke-dashoffset:0;stroke-opacity:1" />
    <path
       inkscape:export-filename="C:\Users\Adam\puffin_down.png"
       inkscape:export-ydpi="300"
       inkscape:export-xdpi="300"
       sodipodi:nodetypes="czzzccc"
       inkscape:connector-curvature="0"
       id="path4800"
       d="m 66.098513,140.18794 c 0,0 -1.874191,-0.67132 -3.933891,-0.1331 -2.0597,0.53824 -5.91775,3.24927 -5.95791,3.71425 -0.0401,0.46496 2.58908,3.34813 4.96497,4.62657 2.37589,1.27844 4.14347,1.53663 4.14347,1.53663 0.792571,-3.04984 1.518982,-6.12438 0.783339,-9.74437 z"
       style="display:inline;fill:#e7e7e7;fill-opacity:1;stroke:none;stroke-width:0.26458332px;stroke-linecap:butt;stroke-linejoin:miter;stroke-opacity:1" />
    <path
       inkscape:export-filename="C:\Users\Adam\puffin_down.png"
       inkscape:export-ydpi="300"
       inkscape:export-xdpi="300"
       inkscape:connector-curvature="0"
       id="path4802"
       d="m 66.098491,140.18794 c 0.735651,3.61998 0.009,6.69452 -0.783329,9.74436 0.49827,0.13077 1.004981,0.22562 1.51613,0.2881 0.58497,-0.86186 1.37519,-2.09181 1.70007,-2.9591 0.408371,-1.09014 0.64779,-3.12166 0.785891,-4.8301 -0.923631,-0.91366 -2.00515,-1.67939 -3.21874,-2.24326 z"
       style="display:inline;opacity:1;vector-effect:none;fill:#ed875f;fill-opacity:1;stroke:none;stroke-width:0.5;stroke-linecap:round;stroke-linejoin:miter;stroke-miterlimit:4;stroke-dasharray:none;stroke-dashoffset:0;stroke-opacity:1" />
    <path
       inkscape:export-filename="C:\Users\Adam\puffin_down.png"
       inkscape:export-ydpi="300"
       inkscape:export-xdpi="300"
       inkscape:connector-curvature="0"
       id="path4804"
       d="m 70.114702,143.29936 c 0.159952,1.13899 0.28987,2.31641 0.2979,3.18141 0.009,0.99761 -0.0807,2.34375 -0.189518,3.59422 0.830537,-0.16148 1.644708,-0.4098 2.425067,-0.75327 -0.244528,-2.24795 -1.143727,-4.33071 -2.533449,-6.02236 z"
       style="display:inline;opacity:1;vector-effect:none;fill:#f56356;fill-opacity:1;stroke:none;stroke-width:0.5;stroke-linecap:round;stroke-linejoin:miter;stroke-miterlimit:4;stroke-dasharray:none;stroke-dashoffset:0;stroke-opacity:1" />
    <path
       inkscape:export-filename="C:\Users\Adam\puffin_down.png"
       inkscape:export-ydpi="300"
       inkscape:export-xdpi="300"
       sodipodi:nodetypes="szcsczs"
       inkscape:connector-curvature="0"
       id="path4806"
       d="m 60.947532,144.01081 c -0.10491,-0.28577 1.07124,-0.96579 1.68576,-1.23277 0.61453,-0.26697 1.25167,-0.28232 1.80925,-0.21405 0.15093,0.38055 0.20542,0.7125 0.22421,1.08516 0.0196,0.38779 -0.0405,0.76246 -0.11624,1.15902 -0.90614,-0.0782 -1.13785,-0.19833 -1.90595,-0.40408 -0.76809,-0.20579 -1.61858,-0.17962 -1.69703,-0.39328 z"
       style="display:inline;fill:#34302f;fill-opacity:1;stroke:none;stroke-width:0.26458332px;stroke-linecap:butt;stroke-linejoin:miter;stroke-opacity:1" />
    <path
       inkscape:export-filename="C:\Users\Adam\puffin_down.png"
       inkscape:export-ydpi="300"
       inkscape:export-xdpi="300"
       style="display:inline;opacity:1;vector-effect:none;fill:#e7e7e7;fill-opacity:1;stroke:none;stroke-width:0.44063294;stroke-linecap:round;stroke-linejoin:miter;stroke-miterlimit:4;stroke-dasharray:none;stroke-dashoffset:0;stroke-opacity:1"
       d="m 53.005332,155.94893 c -1.952072,2.26222 -4.018022,5.64336 -5.593542,8.6264 -1.6256,3.07784 -3.93284,8.39597 -3.84967,8.58974 0.43611,0.65812 0.27002,1.1639 1.21656,1.27823 10.512832,1.26984 17.259272,-5.31458 19.100722,-9.42317 1.841439,-4.10859 2.453489,-5.03955 1.18188,-8.02048 -0.96221,-1.46476 -0.57013,-4.53186 -1.81172,-4.55416 -5.65567,-0.10162 -8.26951,1.21496 -10.24423,3.50344 z"
       id="path4808"
       inkscape:connector-curvature="0"
       sodipodi:nodetypes="sscszcss" />
    <path
       inkscape:export-filename="C:\Users\Adam\puffin_down.png"
       inkscape:export-ydpi="300"
       inkscape:export-xdpi="300"
       sodipodi:nodetypes="cccczczccccc"
       inkscape:connector-curvature="0"
       id="path4810"
       d="m 46.41687,172.66588 c -0.0926,-2.6e-4 -0.18672,0.0184 -0.27749,0.0572 -0.36318,0.15445 -0.53136,0.57132 -0.37693,0.93446 l 2.62288,6.16089 c -1.0734,0.4154 -2.26404,1.88818 -2.17038,2.16812 0.0937,0.2799 2.48093,0.46706 3.91983,0.38222 1.3923,-0.0862 3.947402,-0.5802 4.029012,-1.05756 0.0816,-0.47734 -2.585082,-1.92481 -4.287352,-1.82115 -0.0263,0.003 -0.0526,0.005 -0.0786,0.01 l -2.72448,-6.39903 c -0.11585,-0.27238 -0.37875,-0.43504 -0.65638,-0.43417 z"
       style="display:inline;opacity:1;vector-effect:none;fill:#ed875f;fill-opacity:1;stroke:none;stroke-width:0.57983267;stroke-linecap:round;stroke-linejoin:miter;stroke-miterlimit:4;stroke-dasharray:none;stroke-dashoffset:0;stroke-opacity:1" />
  </g>
</svg>
