<?xml version="1.0" encoding="UTF-8" standalone="no"?>
<!-- Created with Inkscape (http://www.inkscape.org/) -->
<svg xmlns:dc="http://purl.org/dc/elements/1.1/" xmlns:cc="http://creativecommons.org/ns#" xmlns:rdf="http://www.w3.org/1999/02/22-rdf-syntax-ns#" xmlns:svg="http://www.w3.org/2000/svg" xmlns="http://www.w3.org/2000/svg" xmlns:sodipodi="http://sodipodi.sourceforge.net/DTD/sodipodi-0.dtd" xmlns:inkscape="http://www.inkscape.org/namespaces/inkscape" width="50.433334mm" height="44.433475mm" viewBox="0 0 50.433334 44.433475" version="1.1" id="svg8389" inkscape:version="0.92.4 (5da689c313, 2019-01-14)" sodipodi:docname="pointing-puffin.svg">
  <defs id="defs8383"/>
  <sodipodi:namedview id="base" pagecolor="#ffffff" bordercolor="#666666" borderopacity="1.0" inkscape:pageopacity="0.0" inkscape:pageshadow="2" inkscape:zoom="1.979899" inkscape:cx="118.07918" inkscape:cy="131.08913" inkscape:document-units="mm" inkscape:current-layer="layer1" showgrid="false" fit-margin-top="0" fit-margin-left="0" fit-margin-right="0" fit-margin-bottom="0" inkscape:window-width="2560" inkscape:window-height="1377" inkscape:window-x="2552" inkscape:window-y="-8" inkscape:window-maximized="1"/>
  <metadata id="metadata8386">
    <rdf:RDF>
      <cc:Work rdf:about="">
        <dc:format>image/svg+xml</dc:format>
        <dc:type rdf:resource="http://purl.org/dc/dcmitype/StillImage"/>
        <dc:title/>
      </cc:Work>
    </rdf:RDF>
  </metadata>
  <g inkscape:label="Vrstva 1" inkscape:groupmode="layer" id="layer1" transform="translate(-83.640474,-132.66421)">
    <path style="display:inline;fill:#34302f;fill-opacity:1;stroke:none;stroke-width:0.26458332px;stroke-linecap:butt;stroke-linejoin:miter;stroke-opacity:1" d="m 119.30847,147.6707 c -3.7328,0 -4.89423,0.99506 -6.79494,1.91875 -1.9007,0.92368 -5.39088,-0.37724 -5.39088,-0.37724 l -1.4087,15.05179 c 0,0 2.40047,-1.33643 5.14129,-3.40186 1.75705,-1.32408 4.05811,-2.06434 5.12373,-2.40812 1.99745,-0.72075 1.91366,-0.73956 4.35528,-0.0284 0,0 0.16878,0.008 0.2036,-1.13016 0.0719,0.0592 0.14121,0.1112 0.20775,0.15451 1.05393,0.68611 1.25056,0.60875 1.25056,0.60875 0,0 0.17175,-0.002 0.10904,-1.16996 -0.002,-0.0422 -0.0139,-0.0911 -0.0222,-0.13746 0.13741,0.1185 0.26874,0.22069 0.38914,0.29301 1.07803,0.64762 1.27174,0.56327 1.27174,0.56327 0,0 0.17207,-0.009 0.0672,-1.17357 -0.009,-0.0992 -0.0411,-0.21319 -0.0827,-0.3328 0.23983,0.17201 0.46575,0.31277 0.65889,0.39481 1.15748,0.49176 1.33738,0.38137 1.33738,0.38137 0,0 0.16939,-0.0327 -0.0961,-1.1715 -0.0124,-0.053 -0.0361,-0.11105 -0.0594,-0.16898 0.21023,0.0955 0.40508,0.16991 0.57205,0.20929 1.22405,0.28871 1.38286,0.14934 1.38286,0.14934 0,0 0.16092,-0.0605 -0.29352,-1.13791 -0.01,-0.0228 -0.0277,-0.0478 -0.0398,-0.0713 0.24649,0.0738 0.47358,0.12673 0.66042,0.14263 1.2531,0.10668 1.38958,-0.0543 1.38958,-0.0543 0,0 0.15075,-0.0838 -0.4563,-1.08314 -0.0352,-0.0579 -0.0829,-0.11737 -0.13643,-0.17725 0.25272,0.0442 0.48379,0.0702 0.67076,0.0641 1.25696,-0.0411 1.37357,-0.21756 1.37357,-0.21756 0,0 0.13976,-0.10038 -0.58033,-1.02164 -0.0128,-0.0163 -0.033,-0.0328 -0.0475,-0.0491 0.0682,-0.003 0.13617,-0.006 0.19585,-0.0134 1.24711,-0.16237 1.34617,-0.34934 1.34617,-0.34934 0,0 0.1172,-0.11299 -0.62941,-0.90899 0.71248,0.0152 1.40076,-0.0125 1.82314,-0.14159 1.20274,-0.3675 1.26969,-0.56792 1.26969,-0.56792 0,0 0.10862,-0.13353 -0.82682,-0.83509 -0.64811,-0.48609 -2.61759,-0.59914 -3.81683,-0.62529 -3.32773,-0.54323 -7.31748,-1.17771 -10.11772,-1.17771 z" id="path4717" inkscape:connector-curvature="0" inkscape:transform-center-x="-12.369285" inkscape:transform-center-y="4.497919" inkscape:export-xdpi="300" inkscape:export-ydpi="300"/>
    <path sodipodi:nodetypes="cccczczccccc" inkscape:connector-curvature="0" id="path4812" d="m 99.687664,165.71861 c -0.091,-0.0173 -0.1869,-0.0165 -0.28328,0.005 -0.38545,0.0847 -0.62774,0.46332 -0.54305,0.84874 l 1.232436,5.85143 c -1.131656,0.69777 -1.532846,1.79647 -1.492506,2.0586 0.0404,0.26213 2.550706,0.78229 3.980526,0.96472 1.38427,0.17234 4.61595,-0.003 4.81364,-0.72126 0.19769,-0.71748 -4.01315,-2.76939 -5.77556,-2.34935 -0.0262,-0.002 -0.0526,-0.005 -0.0791,-0.006 l -1.28833,-6.10424 c -0.0635,-0.28911 -0.291856,-0.49754 -0.564866,-0.54793 z" style="display:inline;opacity:1;vector-effect:none;fill:#ed875f;fill-opacity:1;stroke:none;stroke-width:0.57983267;stroke-linecap:round;stroke-linejoin:miter;stroke-miterlimit:4;stroke-dasharray:none;stroke-dashoffset:0;stroke-opacity:1" inkscape:export-xdpi="300" inkscape:export-ydpi="300" inkscape:export-filename="C:\Users\Adam\puffin_down.png"/>
    <path style="display:inline;opacity:1;vector-effect:none;fill:#34302f;fill-opacity:1;stroke:none;stroke-width:0.5;stroke-linecap:round;stroke-linejoin:miter;stroke-miterlimit:4;stroke-dasharray:none;stroke-dashoffset:0;stroke-opacity:1" d="m 106.17766,132.68738 c -3.17974,-0.27257 -5.97467,1.88658 -6.594086,5.08168 -0.61941,3.19511 -1.10827,6.56726 -1.4758,9.54608 -6.38803,4.08491 -10.53883,10.9014 -11.30345,17.12715 l -0.0356,-0.008 c -0.40091,2.01502 -1.68904,3.86639 -3.12825,5.33257 0.95186,0.22267 2.2255,0.38467 3.19849,0.47916 1.59434,0.12964 3.46898,0.0172 5.068,0.0602 8.361386,0.22451 15.535666,-5.01452 18.886486,-13.31195 0.68382,-1.69322 0.47451,-3.79641 -0.28411,-5.20741 -0.86261,-1.60427 -1.31594,-3.42046 -1.15833,-5.27859 0.0588,-0.63385 0.18328,-1.25987 0.37189,-1.86785 0.57964,0.15214 1.17036,0.25847 1.76668,0.31802 1.90387,0.1604 3.81761,-0.15891 5.56635,-0.92861 -0.43311,-3.98147 -2.91762,-7.44621 -6.54967,-9.13378 -1.10178,-1.26982 -2.65384,-2.06186 -4.32857,-2.20889 z" id="path4814" inkscape:connector-curvature="0" sodipodi:nodetypes="cccccccsssccccccc" inkscape:export-xdpi="300" inkscape:export-ydpi="300" inkscape:export-filename="C:\Users\Adam\puffin_down.png"/>
    <path style="display:inline;fill:#e7e7e7;fill-opacity:1;stroke:none;stroke-width:0.26458332px;stroke-linecap:butt;stroke-linejoin:miter;stroke-opacity:1" d="m 110.50623,134.89628 c 0,0 -1.87419,-0.67133 -3.93389,-0.1331 -2.0597,0.53824 -5.91775,3.24927 -5.95791,3.71424 -0.0401,0.46497 2.58908,3.34814 4.96497,4.62657 2.37589,1.27844 4.14347,1.53664 4.14347,1.53664 0.79257,-3.04984 1.51898,-6.12438 0.78334,-9.74437 z" id="path4816" inkscape:connector-curvature="0" sodipodi:nodetypes="czzzccc" inkscape:export-xdpi="300" inkscape:export-ydpi="300" inkscape:export-filename="C:\Users\Adam\puffin_down.png"/>
    <path style="display:inline;opacity:1;vector-effect:none;fill:#ed875f;fill-opacity:1;stroke:none;stroke-width:0.5;stroke-linecap:round;stroke-linejoin:miter;stroke-miterlimit:4;stroke-dasharray:none;stroke-dashoffset:0;stroke-opacity:1" d="m 110.50621,134.89628 c 0.73566,3.61997 0.009,6.69451 -0.78333,9.74436 0.49827,0.13076 1.00498,0.22561 1.51613,0.28809 0.58497,-0.86186 1.37519,-2.09181 1.70008,-2.95909 0.40836,-1.09014 0.64779,-3.12167 0.78588,-4.83011 -0.92363,-0.91366 -2.00515,-1.67938 -3.21874,-2.24325 z" id="path4818" inkscape:connector-curvature="0" inkscape:export-xdpi="300" inkscape:export-ydpi="300" inkscape:export-filename="C:\Users\Adam\puffin_down.png"/>
    <path style="display:inline;opacity:1;vector-effect:none;fill:#f56356;fill-opacity:1;stroke:none;stroke-width:0.5;stroke-linecap:round;stroke-linejoin:miter;stroke-miterlimit:4;stroke-dasharray:none;stroke-dashoffset:0;stroke-opacity:1" d="m 114.52242,138.00769 c 0.15995,1.139 0.28987,2.31641 0.2979,3.18142 0.009,0.99761 -0.0807,2.34374 -0.18952,3.59422 0.83054,-0.16148 1.64471,-0.4098 2.42507,-0.75328 -0.24453,-2.24795 -1.14373,-4.33071 -2.53345,-6.02236 z" id="path4820" inkscape:connector-curvature="0" inkscape:export-xdpi="300" inkscape:export-ydpi="300" inkscape:export-filename="C:\Users\Adam\puffin_down.png"/>
    <path style="display:inline;fill:#34302f;fill-opacity:1;stroke:none;stroke-width:0.26458332px;stroke-linecap:butt;stroke-linejoin:miter;stroke-opacity:1" d="m 105.35525,138.71915 c -0.10491,-0.28577 1.07124,-0.9658 1.68576,-1.23278 0.61453,-0.26696 1.25167,-0.28231 1.80925,-0.21405 0.15093,0.38055 0.20542,0.7125 0.22421,1.08516 0.0196,0.3878 -0.0405,0.76247 -0.11624,1.15902 -0.90614,-0.0782 -1.13785,-0.19833 -1.90595,-0.40407 -0.76809,-0.20579 -1.61858,-0.17962 -1.69703,-0.39328 z" id="path4822" inkscape:connector-curvature="0" sodipodi:nodetypes="szcsczs" inkscape:export-xdpi="300" inkscape:export-ydpi="300" inkscape:export-filename="C:\Users\Adam\puffin_down.png"/>
    <path sodipodi:nodetypes="sscszcss" inkscape:connector-curvature="0" id="path4824" d="m 97.413054,150.65727 c -1.95207,2.26222 -4.01802,5.64336 -5.59354,8.62639 -1.6256,3.07784 -3.93284,8.39597 -3.84967,8.58974 0.43611,0.65812 0.27002,1.1639 1.21656,1.27824 10.51283,1.26983 17.259266,-5.31458 19.100716,-9.42318 1.84144,-4.10859 2.45349,-5.03954 1.18188,-8.02048 -0.96221,-1.46475 -0.57013,-4.53185 -1.81172,-4.55415 -5.65567,-0.10162 -8.269506,1.21495 -10.244226,3.50344 z" style="display:inline;opacity:1;vector-effect:none;fill:#e7e7e7;fill-opacity:1;stroke:none;stroke-width:0.44063294;stroke-linecap:round;stroke-linejoin:miter;stroke-miterlimit:4;stroke-dasharray:none;stroke-dashoffset:0;stroke-opacity:1" inkscape:export-xdpi="300" inkscape:export-ydpi="300" inkscape:export-filename="C:\Users\Adam\puffin_down.png"/>
    <path style="display:inline;opacity:1;vector-effect:none;fill:#ed875f;fill-opacity:1;stroke:none;stroke-width:0.57983267;stroke-linecap:round;stroke-linejoin:miter;stroke-miterlimit:4;stroke-dasharray:none;stroke-dashoffset:0;stroke-opacity:1" d="m 90.824594,167.37422 c -0.0926,-2.7e-4 -0.18672,0.0184 -0.27749,0.0572 -0.36318,0.15445 -0.53136,0.57132 -0.37693,0.93446 l 2.62288,6.16089 c -1.0734,0.4154 -2.26404,1.88818 -2.17038,2.16811 0.0937,0.27991 2.48093,0.46707 3.91983,0.38222 1.3923,-0.0862 3.9474,-0.5802 4.02901,-1.05756 0.0816,-0.47734 -2.58508,-1.9248 -4.28735,-1.82114 -0.0263,0.003 -0.0526,0.005 -0.0786,0.01 l -2.72448,-6.39903 c -0.11585,-0.27239 -0.37875,-0.43504 -0.65638,-0.43418 z" id="path4826" inkscape:connector-curvature="0" sodipodi:nodetypes="cccczczccccc" inkscape:export-xdpi="300" inkscape:export-ydpi="300" inkscape:export-filename="C:\Users\Adam\puffin_down.png"/>
  </g>
</svg>