<?xml version="1.0" encoding="UTF-8" standalone="no"?>
<!-- Created with Inkscape (http://www.inkscape.org/) -->

<svg
   xmlns:dc="http://purl.org/dc/elements/1.1/"
   xmlns:cc="http://creativecommons.org/ns#"
   xmlns:rdf="http://www.w3.org/1999/02/22-rdf-syntax-ns#"
   xmlns:svg="http://www.w3.org/2000/svg"
   xmlns="http://www.w3.org/2000/svg"
   xmlns:sodipodi="http://sodipodi.sourceforge.net/DTD/sodipodi-0.dtd"
   xmlns:inkscape="http://www.inkscape.org/namespaces/inkscape"
   width="42.6675mm"
   height="35.706856mm"
   viewBox="0 0 42.6675 35.706856"
   version="1.1"
   id="svg8978"
   inkscape:version="0.92.4 (5da689c313, 2019-01-14)"
   sodipodi:docname="puffin-lookin-down.svg">
  <defs
     id="defs8972" />
  <sodipodi:namedview
     id="base"
     pagecolor="#ffffff"
     bordercolor="#666666"
     borderopacity="1.0"
     inkscape:pageopacity="0.0"
     inkscape:pageshadow="2"
     inkscape:zoom="1.4"
     inkscape:cx="270.75136"
     inkscape:cy="-16.019869"
     inkscape:document-units="mm"
     inkscape:current-layer="layer1"
     showgrid="false"
     fit-margin-top="0"
     fit-margin-left="0"
     fit-margin-right="0"
     fit-margin-bottom="0"
     inkscape:window-width="2560"
     inkscape:window-height="1377"
     inkscape:window-x="2552"
     inkscape:window-y="-8"
     inkscape:window-maximized="1" />
  <metadata
     id="metadata8975">
    <rdf:RDF>
      <cc:Work
         rdf:about="">
        <dc:format>image/svg+xml</dc:format>
        <dc:type
           rdf:resource="http://purl.org/dc/dcmitype/StillImage" />
        <dc:title></dc:title>
      </cc:Work>
    </rdf:RDF>
  </metadata>
  <g
     inkscape:label="Vrstva 1"
     inkscape:groupmode="layer"
     id="layer1"
     transform="translate(40.23256,-130.97991)">
    <path
       sodipodi:nodetypes="cccczczccccc"
       inkscape:connector-curvature="0"
       id="path4674"
       d="m -19.0474,155.30768 c -0.091,-0.0173 -0.1869,-0.0165 -0.28328,0.005 -0.38545,0.0847 -0.62774,0.46332 -0.54305,0.84874 l 1.23244,5.85143 c -1.13166,0.69777 -1.53285,1.79647 -1.49251,2.0586 0.0404,0.26213 2.55071,0.78229 3.98053,0.96472 1.38427,0.17234 4.61595,-0.003 4.813641,-0.72126 0.197689,-0.71748 -4.013151,-2.76939 -5.775561,-2.34935 -0.0262,-0.002 -0.0526,-0.005 -0.0791,-0.006 l -1.28833,-6.10423 c -0.0635,-0.28911 -0.29186,-0.49754 -0.56487,-0.54793 z"
       style="display:inline;opacity:1;vector-effect:none;fill:#ed875f;fill-opacity:1;stroke:none;stroke-width:0.57983267;stroke-linecap:round;stroke-linejoin:miter;stroke-miterlimit:4;stroke-dasharray:none;stroke-dashoffset:0;stroke-opacity:1"
       inkscape:export-xdpi="300"
       inkscape:export-ydpi="300"
       inkscape:export-filename="C:\Users\Adam\puffin_down.png" />
    <path
       style="display:inline;opacity:1;vector-effect:none;fill:#34302f;fill-opacity:1;stroke:none;stroke-width:0.5;stroke-linecap:round;stroke-linejoin:miter;stroke-miterlimit:4;stroke-dasharray:none;stroke-dashoffset:0;stroke-opacity:1"
       d="m -2.4015144,132.05101 c -2.636941,-1.79765 -6.131708,-1.28761 -8.2391246,1.19254 -2.107412,2.48016 -4.187941,5.17864 -5.969761,7.59392 -7.57051,0.4251 -14.53186,4.32808 -18.2528,9.37775 l -0.0271,-0.0245 c -1.338011,1.55909 -3.36881,2.54027 -5.34226,3.11167 0.72016,0.66106 1.75046,1.42714 2.55192,1.98687 1.32563,0.89523 3.01426,1.71708 4.38651,2.53906 7.17558,4.29817 15.99747,3.25319 22.988379,-2.33272 1.4266276,-1.13988 2.2761866,-3.0752 2.3074676,-4.6769 0.0355,-1.82113 0.531609,-3.62611 1.58064,-5.16787 0.362199,-0.52347 0.777859,-1.00786 1.240509,-1.44509 0.43043,0.41697 0.89298,0.79946 1.383372,1.14394 1.580247,1.0739 3.40445999,1.73465 5.30588,1.92199 1.576139,-3.68178 1.111229,-7.91983 -1.22556101,-11.17237 -0.337,-1.64706 -1.30078099,-3.09873 -2.68791999,-4.04856 z"
       id="circle4581"
       inkscape:connector-curvature="0"
       sodipodi:nodetypes="cccccccsssccccccc"
       inkscape:export-xdpi="300"
       inkscape:export-ydpi="300"
       inkscape:export-filename="C:\Users\Adam\puffin_down.png"
       inkscape:transform-center-x="-7.2964581"
       inkscape:transform-center-y="-10.851143" />
    <path
       style="display:inline;fill:#e7e7e7;fill-opacity:1;stroke:none;stroke-width:0.26458332px;stroke-linecap:butt;stroke-linejoin:miter;stroke-opacity:1"
       d="m 0.28641659,136.09957 c 0,0 -1.30369999,-1.50454 -3.36250999,-2.04615 -2.058821,-0.5416 -6.75073,-0.0723 -7.0138606,0.31316 -0.263115,0.38545 0.6132296,4.18775 2.0562086,6.46746 1.442972,2.27971 2.856482,3.37196 2.856482,3.37196 2.187019,-2.26862 4.32850899,-4.59122 5.46366899,-8.10646 z"
       id="path4627"
       inkscape:connector-curvature="0"
       sodipodi:nodetypes="czzzccc"
       inkscape:export-xdpi="300"
       inkscape:export-ydpi="300"
       inkscape:export-filename="C:\Users\Adam\puffin_down.png"
       inkscape:transform-center-x="-21.270255"
       inkscape:transform-center-y="-17.572145" />
    <path
       style="display:inline;opacity:1;vector-effect:none;fill:#ed875f;fill-opacity:1;stroke:none;stroke-width:0.5;stroke-linecap:round;stroke-linejoin:miter;stroke-miterlimit:4;stroke-dasharray:none;stroke-dashoffset:0;stroke-opacity:1"
       d="m 0.28639559,136.09956 c -1.135139,3.51523 -3.27665099,5.83782 -5.46365899,8.10645 0.370009,0.35842 0.765,0.68969 1.17974,0.99493 0.93259,-0.46397 2.22463,-1.14797 2.93325,-1.74428 0.89070899,-0.74953 2.096108,-2.40224 3.054689,-3.82314 -0.356518,-1.2493 -0.9232,-2.44717 -1.70399901,-3.53395 z"
       id="path4644"
       inkscape:connector-curvature="0"
       inkscape:export-xdpi="300"
       inkscape:export-ydpi="300"
       inkscape:export-filename="C:\Users\Adam\puffin_down.png"
       inkscape:transform-center-x="-24.601846"
       inkscape:transform-center-y="-15.928949" />
    <path
       style="display:inline;opacity:1;vector-effect:none;fill:#f56356;fill-opacity:1;stroke:none;stroke-width:0.5;stroke-linecap:round;stroke-linejoin:miter;stroke-miterlimit:4;stroke-dasharray:none;stroke-dashoffset:0;stroke-opacity:1"
       d="m 2.2593166,140.78127 c -0.419481,1.07095 -0.88397,2.16064 -1.30139001,2.91831 -0.48137,0.87384 -1.220301,2.00263 -1.928662,3.03885 0.802931,0.2668 1.634202,0.4499 2.48270201,0.5335 0.889889,-2.07874 1.128279,-4.33476 0.74735,-6.49066 z"
       id="path4634"
       inkscape:connector-curvature="0"
       inkscape:export-xdpi="300"
       inkscape:export-ydpi="300"
       inkscape:export-filename="C:\Users\Adam\puffin_down.png"
       inkscape:transform-center-x="-26.926961"
       inkscape:transform-center-y="-12.552599" />
    <path
       style="display:inline;fill:#34302f;fill-opacity:1;stroke:none;stroke-width:0.26458332px;stroke-linecap:butt;stroke-linejoin:miter;stroke-opacity:1"
       d="m -4.7986524,136.558 c 0.109108,-0.28419 1.442159,-0.022 2.080519,0.18149 0.63836,0.2035 1.12813,0.61132 1.50296,1.02971 -0.13685,0.38584 -0.314312,0.67161 -0.545452,0.96453 -0.240487,0.30485 -0.532389,0.54732 -0.850389,0.79604 -0.630679,-0.65532 -0.72608,-0.89824 -1.168911,-1.5587 -0.442788,-0.66049 -1.100299,-1.20058 -1.018727,-1.41307 z"
       id="path4646"
       inkscape:connector-curvature="0"
       sodipodi:nodetypes="szcsczs"
       inkscape:export-xdpi="300"
       inkscape:export-ydpi="300"
       inkscape:export-filename="C:\Users\Adam\puffin_down.png"
       inkscape:transform-center-x="-0.12621021"
       inkscape:transform-center-y="-0.029179213" />
    <path
       sodipodi:nodetypes="sscszcss"
       inkscape:connector-curvature="0"
       id="path4648"
       d="m -18.85557,143.40878 c -2.81091,1.01341 -6.27005,2.94592 -9.10652,4.77217 -2.92663,1.88428 -7.54641,5.38621 -7.56901,5.59586 0.0571,0.78743 -0.33579,1.14665 0.43289,1.7107 8.53735,6.26463 17.64656,3.83742 21.26701,1.16089 3.620437,-2.67653 4.6105266,-3.18742 4.9651046,-6.40879 -0.11974,-1.74843 1.726782,-4.22859 0.65586,-4.85721 -4.8782336,-2.86352 -7.8017946,-2.9988 -10.6453346,-1.97362 z"
       style="display:inline;opacity:1;vector-effect:none;fill:#e7e7e7;fill-opacity:1;stroke:none;stroke-width:0.44063294;stroke-linecap:round;stroke-linejoin:miter;stroke-miterlimit:4;stroke-dasharray:none;stroke-dashoffset:0;stroke-opacity:1"
       inkscape:export-xdpi="300"
       inkscape:export-ydpi="300"
       inkscape:export-filename="C:\Users\Adam\puffin_down.png"
       inkscape:transform-center-x="-4.4670067"
       inkscape:transform-center-y="-5.4476064" />
    <path
       style="display:inline;opacity:1;vector-effect:none;fill:#ed875f;fill-opacity:1;stroke:none;stroke-width:0.57983267;stroke-linecap:round;stroke-linejoin:miter;stroke-miterlimit:4;stroke-dasharray:none;stroke-dashoffset:0;stroke-opacity:1"
       d="m -27.91047,156.96329 c -0.0926,-3.4e-4 -0.18672,0.0184 -0.27749,0.0572 -0.36318,0.15445 -0.53136,0.57132 -0.37693,0.93446 l 2.62288,6.16089 c -1.0734,0.4154 -2.26404,1.88818 -2.17038,2.16811 0.0937,0.27991 2.48093,0.46707 3.91983,0.38222 1.3923,-0.0862 3.9474,-0.5802 4.02901,-1.05755 0.0816,-0.47734 -2.58508,-1.92481 -4.28735,-1.82115 -0.0263,0.003 -0.0526,0.005 -0.0786,0.01 l -2.72448,-6.39903 c -0.11585,-0.27238 -0.37875,-0.43504 -0.65638,-0.43417 z"
       id="path4650"
       inkscape:connector-curvature="0"
       sodipodi:nodetypes="cccczczccccc"
       inkscape:export-xdpi="300"
       inkscape:export-ydpi="300"
       inkscape:export-filename="C:\Users\Adam\puffin_down.png" />
  </g>
</svg>
